<?xml version="1.0" encoding="utf-8"?>
<!-- Generator: Adobe Illustrator 18.0.0, SVG Export Plug-In . SVG Version: 6.00 Build 0)  -->
<!DOCTYPE svg PUBLIC "-//W3C//DTD SVG 1.1//EN" "http://www.w3.org/Graphics/SVG/1.1/DTD/svg11.dtd">
<svg version="1.1" id="Laag_1" xmlns="http://www.w3.org/2000/svg" xmlns:xlink="http://www.w3.org/1999/xlink" x="0px" y="0px"
	 viewBox="0 0 598 254" enable-background="new 0 0 598 254" xml:space="preserve">
<g>
	<g>
		<g>
			<path fill="#8C8C8C" d="M421,141.9c3.6,0,6.7,0.3,9.5,0.9c2.8,0.6,5.2,1.4,7.3,2.5s3.9,2.3,5.3,3.8c1.4,1.5,2.6,3,3.5,4.8
				c0.9,1.7,1.5,3.5,2,5.5c0.4,1.9,0.6,3.9,0.6,5.9c0,2.8-0.3,5.6-0.9,8.4c-0.6,2.8-1.5,5.6-2.7,8.2c-1.2,2.6-2.6,5.1-4.3,7.5
				c-1.7,2.3-3.6,4.3-5.8,6.1c-2.2,1.7-4.6,3.1-7.2,4.1c-2.6,1-5.5,1.5-8.5,1.5c-1,0-2.1-0.1-3.2-0.2c-1.1-0.2-2.1-0.4-3.1-0.6
				c-1-0.3-2-0.6-2.9-0.9c-0.9-0.3-1.7-0.7-2.4-1c-0.3-0.1-0.5-0.2-0.7-0.3c-0.2-0.1-0.3-0.3-0.4-0.4s-0.1-0.4-0.2-0.6
				c0-0.2,0-0.5,0-0.9c0-3.6,0.1-7.4,0.3-11.2c0.2-3.8,0.6-7.5,1.1-11.2c0.6-3.6,1.4-7.1,2.5-10.4c1.1-3.3,2.5-6.2,4.3-8.8
				c1.6-1.1,3-1.6,4.2-1.6c1.6,0,2.9,0.9,4,2.7c-1,1.4-1.9,2.9-2.5,4.5c-0.7,1.7-1.2,3.4-1.7,5.2c-0.5,1.8-0.8,3.7-1.1,5.6
				c-0.3,1.9-0.6,3.8-0.9,5.6c-0.3,2-0.6,3.7-0.8,5.2c-0.2,1.4-0.4,2.7-0.5,3.8c-0.1,1.1-0.2,2-0.3,2.8c-0.1,0.8-0.1,1.6-0.1,2.4
				c0,0.8,0,1.5,0.1,2c0.1,0.5,0.2,1,0.4,1.3c0.2,0.3,0.5,0.6,1,0.7c0.4,0.1,1,0.2,1.7,0.2c2.2,0,4.3-0.4,6.2-1.3
				c2-0.9,3.8-2,5.4-3.5c1.7-1.5,3.2-3.1,4.5-5.1c1.3-1.9,2.5-4,3.4-6.1c0.9-2.1,1.6-4.3,2.1-6.5c0.5-2.2,0.8-4.4,0.8-6.4
				c0-2.5-0.4-4.8-1.2-6.8s-2-3.7-3.5-5.1c-1.5-1.4-3.3-2.5-5.4-3.2c-2.1-0.7-4.4-1.1-6.9-1.1c-1.8,0-3.7,0.1-5.5,0.3
				c-1.8,0.2-3.5,0.6-5,1c-1.5,0.5-2.9,1-4.1,1.8c-1.2,0.7-2.1,1.6-2.6,2.5c-1.6,2.5-2.9,4.4-3.9,5.7c-1,1.3-1.9,2-2.6,2
				c-1,0-1.4-1.1-1.4-3.3c0-2.1,0.3-4.1,0.8-5.8c0.6-1.7,1.3-3.2,2.3-4.5c1-1.3,2.2-2.5,3.5-3.4c1.4-0.9,2.9-1.7,4.5-2.3
				c1.6-0.6,3.4-1,5.2-1.3S419.1,141.9,421,141.9z"/>
		</g>
		<g>
			<path fill="#8C8C8C" d="M468.9,191.9c-0.8,0.7-1.8,1.5-2.9,2.3c-1.2,0.8-2.4,1.6-3.8,2.3c-1.4,0.7-2.7,1.3-4.2,1.7
				c-1.4,0.5-2.8,0.7-4,0.7c-1.1,0-2.1-0.2-2.9-0.5c-0.8-0.3-1.4-0.8-1.9-1.3c-0.5-0.6-0.8-1.3-1-2.1c-0.2-0.8-0.3-1.7-0.3-2.7
				c0-1.4,0.2-3,0.5-4.8c0.3-1.8,0.7-3.7,1.2-5.7c0.5-2,0.9-3.9,1.5-5.9c0.5-1.9,1-3.7,1.4-5.4c0.2-0.6,0.5-1.1,0.9-1.5
				c0.5-0.4,1-0.7,1.6-1c0.6-0.3,1.2-0.4,1.8-0.6c0.6-0.1,1.2-0.2,1.7-0.2c0.9,0,1.5,0.2,1.9,0.5c0.3,0.3,0.5,0.8,0.5,1.4
				c0,0.5-0.1,1.2-0.3,2.1c-0.2,0.9-0.5,1.9-0.8,3.1c-0.3,1.1-0.7,2.4-1.1,3.7c-0.4,1.3-0.7,2.6-1.1,4c-0.3,1.3-0.6,2.6-0.8,3.9
				c-0.2,1.3-0.3,2.4-0.3,3.4c0,1,0.1,1.8,0.3,2.3c0.2,0.6,0.7,0.9,1.3,0.9c0.8,0,1.7-0.3,2.6-0.8c1-0.5,1.9-1.2,2.9-2
				c1-0.8,1.9-1.6,2.9-2.4c0.9-0.8,1.8-1.5,2.5-2.1V191.9z"/>
		</g>
		<g>
			<path fill="#8C8C8C" d="M462.7,192.1c0-1,0.1-2.1,0.2-3.4c0.1-1.3,0.3-2.6,0.4-4.1c0.2-1.4,0.4-2.9,0.7-4.3
				c0.3-1.5,0.5-2.9,0.8-4.2c0.3-1.3,0.6-2.6,0.9-3.7c0.3-1.1,0.6-2,0.9-2.8c0.2-0.5,0.3-0.9,0.5-1.1c0.2-0.3,0.4-0.5,0.6-0.7
				c0.2-0.2,0.5-0.3,0.9-0.3c0.3-0.1,0.8-0.1,1.3-0.1c0.6,0,1,0,1.3,0.1c0.3,0.1,0.6,0.2,0.7,0.4c0.2,0.2,0.2,0.5,0.3,0.9
				c0,0.4,0,0.9,0,1.6c0,0.8,0,1.8,0,2.9c0,1.1,0,2.3,0.1,3.4h0.4c0.4-0.9,0.9-1.9,1.5-2.9c0.5-1.1,1.2-2.1,1.9-3
				c0.7-0.9,1.5-1.7,2.5-2.4c0.9-0.6,2-1,3.2-1c0.4,0,0.8,0.1,1.2,0.2c0.4,0.1,0.7,0.3,1,0.6c0.3,0.3,0.5,0.6,0.7,1s0.3,0.8,0.3,1.3
				c0,0.4-0.1,0.9-0.2,1.6c-0.1,0.7-0.2,1.4-0.4,2.1s-0.3,1.4-0.4,2.1c-0.1,0.7-0.2,1.3-0.2,1.7c0,0.8,0.1,1.4,0.2,2
				c0.2,0.5,0.4,0.9,0.6,1.3c0.3,0.3,0.5,0.5,0.9,0.7c0.3,0.1,0.7,0.2,1,0.2c1,0,2-0.2,3.1-0.7c1.1-0.4,2-0.9,2.9-1.5
				c1-0.6,2-1.4,3-2.2l-0.5,7.7c-0.6,0.4-1.2,0.8-1.9,1.2c-0.7,0.5-1.5,0.9-2.3,1.3c-0.8,0.4-1.7,0.7-2.6,1
				c-0.9,0.3-1.8,0.4-2.7,0.4c-1.6,0-3-0.3-4-1c-1-0.7-1.8-1.5-2.4-2.6c-0.6-1.1-1-2.3-1.3-3.6c-0.3-1.3-0.5-2.7-0.7-4.1h-0.5
				l-5.9,16.4c-0.3,0.9-0.6,1.6-0.9,2.1c-0.3,0.6-0.6,1-0.8,1.4c-0.3,0.3-0.6,0.6-0.9,0.7c-0.3,0.1-0.7,0.2-1.1,0.2
				c-0.9,0-1.6-0.2-2.2-0.6c-0.5-0.4-1-0.9-1.3-1.5c-0.3-0.6-0.5-1.4-0.6-2.2C462.8,193.8,462.7,192.9,462.7,192.1z"/>
		</g>
		<g>
			<path fill="#8C8C8C" d="M500.9,198.9c-2.1,0-3.9-0.4-5.4-1.1c-1.5-0.7-2.8-1.7-3.9-3c-1-1.3-1.8-2.7-2.3-4.4
				c-0.5-1.7-0.8-3.4-0.8-5.2c0-1.2,0.1-2.5,0.4-3.9c0.2-1.4,0.6-2.7,1.1-4c0.5-1.3,1.1-2.6,1.9-3.8c0.7-1.2,1.6-2.2,2.6-3.2
				c1-0.9,2.1-1.6,3.3-2.2c1.2-0.5,2.6-0.8,4.1-0.8c1.2,0,2.4,0.2,3.4,0.6c1.1,0.4,2,0.9,2.7,1.7c0.8,0.7,1.4,1.6,1.8,2.6
				s0.7,2.1,0.7,3.4c0,1.4-0.3,2.7-1,4.1c-0.7,1.4-1.6,2.6-2.8,3.8c-1.2,1.2-2.6,2.3-4.2,3.2c-1.6,0.9-3.4,1.7-5.3,2.2
				c0.3,0.6,0.6,1.1,1,1.5c0.3,0.4,0.6,0.7,1,0.9c0.3,0.2,0.7,0.4,1,0.5c0.4,0.1,0.8,0.1,1.2,0.1c1.3,0,2.7-0.3,4.2-0.8
				c1.5-0.5,2.9-1.2,4.3-2c1.4-0.8,2.7-1.6,3.9-2.6c1.2-0.9,2.3-1.8,3.1-2.6l4.2,4.4c-1.9,2-4,3.8-6.1,5.3c-0.9,0.7-2,1.3-3,1.9
				c-1.1,0.6-2.2,1.2-3.4,1.7c-1.2,0.5-2.4,0.9-3.7,1.2C503.5,198.8,502.2,198.9,500.9,198.9z M496.5,183.5c0.8,0,1.6-0.2,2.6-0.6
				c0.9-0.4,1.8-0.9,2.6-1.6c0.8-0.6,1.5-1.3,2-2.1c0.5-0.7,0.8-1.5,0.8-2.2c0-1-0.2-1.8-0.5-2.4c-0.4-0.6-0.8-1-1.3-1
				c-0.9,0-1.7,0.2-2.4,0.5c-0.7,0.4-1.2,0.8-1.7,1.4c-0.4,0.6-0.8,1.2-1.1,1.9c-0.3,0.7-0.5,1.4-0.6,2.1c-0.1,0.7-0.2,1.4-0.3,2.1
				C496.6,182.4,496.5,183,496.5,183.5z"/>
		</g>
		<g>
			<path fill="#8C8C8C" d="M524.5,198.9c-2,0-3.8-0.4-5.3-1.1s-2.8-1.7-3.8-3c-1-1.2-1.8-2.7-2.3-4.3c-0.5-1.6-0.8-3.3-0.8-5.1
				c0-1.3,0.1-2.6,0.4-4c0.3-1.4,0.6-2.7,1.2-4.1c0.5-1.3,1.1-2.6,1.9-3.8c0.8-1.2,1.6-2.3,2.6-3.2c1-0.9,2.1-1.6,3.3-2.2
				c1.2-0.5,2.6-0.8,4-0.8c1.2,0,2.4,0.2,3.5,0.6c1.1,0.4,2,0.9,2.7,1.6c0.8,0.7,1.3,1.5,1.8,2.4c0.4,0.9,0.6,1.9,0.6,3
				c0,0.7-0.1,1.5-0.3,2.2c-0.2,0.7-0.5,1.4-0.9,2c-0.4,0.6-0.8,1-1.4,1.4c-0.5,0.4-1.2,0.5-1.8,0.5c-1,0-1.7-0.3-2-0.8
				c-0.3-0.5-0.5-1.3-0.5-2.3c0-0.4,0-0.8,0-1.2c0-0.4,0-0.8,0-1.2c0-0.5-0.1-1-0.2-1.3c-0.1-0.3-0.4-0.5-0.7-0.5
				c-0.9,0-1.7,0.2-2.3,0.6c-0.6,0.4-1.2,1-1.6,1.7c-0.4,0.7-0.8,1.5-1.1,2.3c-0.3,0.9-0.5,1.7-0.6,2.6c-0.2,0.9-0.3,1.7-0.3,2.4
				c0,0.8-0.1,1.4-0.1,2c0,0.8,0.1,1.6,0.2,2.5c0.1,0.9,0.4,1.6,0.8,2.3c0.4,0.7,0.9,1.3,1.6,1.8c0.7,0.5,1.6,0.7,2.6,0.7
				c1,0,2.2-0.3,3.5-1c1.3-0.6,2.5-1.5,3.8-2.4c1.3-1,2.5-2.1,3.7-3.3c1.2-1.2,2.2-2.3,3-3.3l2.3,3.8c-1.6,2.3-3.4,4.4-5.3,6.3
				c-0.8,0.8-1.7,1.6-2.6,2.3c-1,0.7-1.9,1.4-3,2c-1,0.6-2.1,1.1-3.2,1.4C526.8,198.7,525.7,198.9,524.5,198.9z"/>
		</g>
		<g>
			<path fill="#8C8C8C" d="M568.8,186.8c-0.4,2.3-2.2,4.2-4.3,6c-0.9,0.8-1.8,1.3-2.7,1.8c-1.7,1-3.3,1.8-4.6,2.4
				c-1.3,0.6-2.5,1.1-3.6,1.5s-2,0.5-2.9,0.5c-1.8,0-3.3-0.5-4.6-1.6c-1.3-1.1-2.5-2.6-3.4-4.6c-0.9-2-1.6-4.4-2-7.2
				c-0.4-2.8-0.7-6-0.7-9.6c0-1.4,0.1-2.9,0.2-4.4c0.1-1.6,0.3-3.1,0.5-4.7c-0.7-0.1-1.2-0.2-1.6-0.3c-0.4-0.1-0.8-0.2-1.2-0.2
				c-0.4-0.1-1-0.2-1.6-0.3c-0.7-0.1-1.6-0.2-2.9-0.3c-0.6-0.1-1-0.2-1.3-0.4c-0.3-0.2-0.5-0.4-0.7-0.7c-0.1-0.3-0.2-0.5-0.2-0.8
				c0-0.3,0-0.5,0-0.7c0-0.5,0.2-0.8,0.7-1.1c0.4-0.2,1-0.4,1.7-0.5c0.7-0.1,1.5-0.2,2.3-0.2c0.8,0,1.6,0,2.4,0c0.8,0,1.5,0,2.1,0.1
				c0.6,0,1,0,1.3-0.1c0.6-3.1,1.4-6.1,2.4-9c1-2.9,2-5.5,3.2-7.8c1.2-2.3,2.5-4.1,3.9-5.5c1.4-1.4,2.9-2.1,4.4-2.1
				c1,0,1.9,0.3,2.7,0.8c0.8,0.6,1.5,1.3,2.1,2.2c0.6,0.9,1,2,1.3,3.2c0.3,1.2,0.5,2.5,0.5,3.9c0,1.1-0.2,2.3-0.5,3.6
				c-0.3,1.3-0.8,2.5-1.3,3.8c-0.6,1.3-1.2,2.6-2,4c-0.8,1.3-1.5,2.7-2.4,4c0.2,0,0.6,0,1,0.1s1,0,1.7,0.1c0.6,0,1.3,0.1,2.1,0.1
				c0.7,0,1.5,0.1,2.1,0.1c0.7,0,1.3,0,1.9,0.1c0.6,0,1.1,0,1.5,0.1c0.5,0,0.8,0.3,1,0.7c0.2,0.4,0.3,1,0.3,1.7c0,0.8-0.2,1.5-0.7,2
				c-0.5,0.5-1,0.8-1.5,0.8h-13.3c-0.7,0.9-1.3,1.8-2,2.7c-0.7,0.9-1.3,1.7-1.9,2.4c-0.1,1.4-0.2,2.8-0.2,4.2c0,0.6,0,1.2-0.1,1.8
				c0,0.6,0,1.3-0.1,1.9c0,0.6,0,1.2-0.1,1.8s0,1.1,0,1.6c0,1.2,0.1,2.3,0.3,3.1c0.2,0.9,0.6,1.6,1,2.1c0.4,0.5,1,0.9,1.6,1.2
				c0.6,0.2,1.3,0.4,2.1,0.4c0.5,0,1.1-0.1,1.8-0.3c0.7-0.2,1.5-0.5,2.4-1c0.9-0.4,1.8-0.9,2.7-1.4c1-0.6,1.9-1.2,2.8-1.8
				c0.9-0.7,1.8-1.3,2.7-2.1c0.9-0.7,1.7-2,2.6-1.6C569,183.3,569.2,184.8,568.8,186.8z M556.6,147.4c0-0.3,0-0.5-0.1-0.8
				c0-0.3-0.1-0.6-0.2-0.9c-0.1-0.3-0.3-0.5-0.5-0.7c-0.2-0.2-0.6-0.3-1-0.3c-0.6,0-1.2,0.5-1.8,1.6c-0.6,1.1-1.2,2.4-1.8,4.1
				c-0.6,1.6-1.1,3.5-1.6,5.4c-0.5,2-1,3.9-1.4,5.8c0.3,0,0.7,0.1,1,0.1c0.3,0,0.7,0.1,1.1,0.1c0.7-1.2,1.4-2.4,2.2-3.8
				c0.7-1.4,1.4-2.7,2-4c0.6-1.3,1.1-2.6,1.5-3.7C556.4,149.1,556.6,148.1,556.6,147.4z"/>
		</g>
	</g>
</g>
<g>
	<path fill="#86CED5" d="M281.2,198.5c-1.1,1-2.3,1.5-3.7,1.5c-1.5,0-2.8-0.5-3.8-1.5c-1-1-1.5-2.2-1.5-3.7V146
		c0-1.5,0.5-2.7,1.5-3.7c1-1,2.3-1.5,3.9-1.5c1.4,0,2.6,0.5,3.6,1.5c1,1,1.5,2.2,1.5,3.7v48.9C282.8,196.3,282.3,197.5,281.2,198.5z
		"/>
	<path fill="#86CED5" d="M342.5,195.4c0,1.5-0.5,2.7-1.4,3.6c-1,0.9-2.1,1.4-3.3,1.4c-1,0-1.9-0.3-2.7-0.9c-0.8-0.6-1.5-1.5-1.9-2.5
		l-4.4-10.2h-25.2l-4.4,10.3c-0.4,1.1-1,1.9-1.8,2.5c-0.8,0.6-1.7,0.9-2.7,0.9c-1.5,0-2.6-0.4-3.3-1.2s-1.1-1.9-1.1-3.2
		c0-0.5,0.1-1,0.3-1.6l21-50.5c0.5-1.1,1.1-2,2-2.6c0.9-0.6,1.9-0.9,3-0.8c1,0,2,0.3,2.8,0.9c0.9,0.6,1.5,1.4,1.9,2.5l20.8,49.5
		C342.3,194.1,342.5,194.8,342.5,195.4z M307.7,177h16.9l-8.5-19.8L307.7,177z"/>
	<path fill="#86CED5" d="M396.7,169.5c1,1,1.4,2.2,1.4,3.7v17.9c0,2-0.9,3.5-2.6,4.6c-5.5,3.4-11.6,5.2-18.2,5.2
		c-5.6,0-10.7-1.4-15.5-4.1c-4.7-2.7-8.5-6.4-11.2-11.1c-2.8-4.6-4.1-9.7-4.1-15.3c0-5.5,1.4-10.6,4.1-15.3
		c2.8-4.6,6.5-8.3,11.2-11.1c4.7-2.7,9.9-4.1,15.5-4.1c5.6,0,10.4,1.1,14.5,3.4c0.8,0.5,1.5,1,1.9,1.8c0.4,0.7,0.6,1.5,0.6,2.4
		c0,1.4-0.5,2.6-1.4,3.7c-0.9,1-2.1,1.6-3.4,1.6c-0.8,0-1.8-0.2-2.8-0.7c-3-1.3-6.2-1.9-9.5-1.9c-3.6,0-6.9,0.9-10,2.7
		c-3,1.8-5.5,4.3-7.2,7.4c-1.8,3.1-2.7,6.5-2.7,10.1c0,3.7,0.9,7,2.7,10.1c1.8,3.1,4.2,5.6,7.2,7.4c3,1.8,6.4,2.7,10,2.7
		c1.6,0,3.3-0.1,5.1-0.4c1.8-0.3,3.4-0.6,4.7-1.1v-11h-7.9c-1.5,0-2.7-0.5-3.7-1.4c-1-1-1.5-2.2-1.5-3.6c0-1.5,0.5-2.7,1.5-3.6
		c1-1,2.2-1.4,3.7-1.4H393C394.5,168,395.7,168.5,396.7,169.5z"/>
</g>
<g>
	<g>
		<path fill="#86CED5" d="M454.8,159.5c-0.8-0.8-1.2-1.9-1.2-3.4v-1.3c0-1.5,0.4-2.6,1.2-3.4c0.8-0.8,1.9-1.2,3.4-1.2h1
			c1.5,0,2.6,0.4,3.4,1.2c0.8,0.8,1.2,1.9,1.2,3.4v1.3c0,1.5-0.4,2.6-1.2,3.4c-0.8,0.8-1.9,1.2-3.4,1.2h-1
			C456.7,160.7,455.6,160.3,454.8,159.5z"/>
	</g>
</g>
<g>
	<linearGradient id="SVGID_1_" gradientUnits="userSpaceOnUse" x1="97.6082" y1="113.2238" x2="211.5991" y2="113.2238">
		<stop  offset="0" style="stop-color:#F26869"/>
		<stop  offset="9.825748e-02" style="stop-color:#E85F60"/>
		<stop  offset="0.5073" style="stop-color:#D03E42"/>
		<stop  offset="0.8211" style="stop-color:#C32832"/>
		<stop  offset="1" style="stop-color:#BE1E2D"/>
	</linearGradient>
	<path fill="url(#SVGID_1_)" d="M122.4,163.1c-0.2-4.4-1.1-9.9,0.4-16.2c8.2-33.7,29.6-96.5,50-97.5c18.6-1,22.8,13.9,23.5,19.4
		l15.2-0.7c-1.3-2.2-1.8-5.9-3.5-15.2c-2-11.4-15.3-20.9-29.6-22.3c-0.1,0-0.3,0-0.4,0c-2-0.3-18.7-2.6-28.2,10.8
		c-7.6,10.8-10.1,15.3-10.9,16.8c-0.2,0.5-0.5,0.9-0.8,1.3c-1.5,2.1-6.9,10.3-17.6,34.9c0,0,0,0.1,0,0.1c-0.5,1.2-13.5,33-15.4,42
		c-2,8.9-16.2,43.7,0,59.6c0,0,0.1,0.1,0.1,0.1c0.3-0.4,0.5-0.9,0.8-1.3"/>
	<linearGradient id="SVGID_2_" gradientUnits="userSpaceOnUse" x1="112.0068" y1="183.987" x2="112.0068" y2="183.987">
		<stop  offset="0" style="stop-color:#F26869"/>
		<stop  offset="9.825748e-02" style="stop-color:#E85F60"/>
		<stop  offset="0.5073" style="stop-color:#D03E42"/>
		<stop  offset="0.8211" style="stop-color:#C32832"/>
		<stop  offset="1" style="stop-color:#BE1E2D"/>
	</linearGradient>
	<path fill="url(#SVGID_2_)" d="M112,184"/>
	
		<linearGradient id="SVGID_3_" gradientUnits="userSpaceOnUse" x1="77.9296" y1="268.9171" x2="116.1172" y2="268.9171" gradientTransform="matrix(0.9977 6.793304e-02 -6.793304e-02 0.9977 123.5267 -197.0835)">
		<stop  offset="0" style="stop-color:#F26869"/>
		<stop  offset="9.825748e-02" style="stop-color:#E85F60"/>
		<stop  offset="0.5073" style="stop-color:#D03E42"/>
		<stop  offset="0.8211" style="stop-color:#C32832"/>
		<stop  offset="1" style="stop-color:#BE1E2D"/>
	</linearGradient>
	<path fill="url(#SVGID_3_)" d="M187.9,65c-1.8,0.2-3.4,1.4-4.1,3.1c-0.7,1.7-0.4,3.6,0.8,5L201.8,93c0.9,1,2.1,1.6,3.4,1.7
		c0.3,0,0.6,0,0.9,0c1.6-0.2,3.1-1.2,3.8-2.7l11.5-22.7c0.8-1.6,0.7-3.5-0.3-5c-1-1.5-2.7-2.3-4.5-2.1l-5.4,0.5l-17.2,1.7L187.9,65z
		"/>
</g>
<path fill="#86CED5" d="M243.4,130.3c-9.9-16.2-21.5-18.9-25.8-19.3c-10.7-1.1-25.1,2-34.8,4l-0.2-5.8c-0.1-1.8-1.1-3.5-2.8-4.3
	c-1.7-0.8-3.6-0.6-5.1,0.5l-21,15.7c-1.1,0.8-1.7,2-1.9,3.3c0,0.3-0.1,0.6,0,0.9c0.1,1.6,1,3.1,2.4,4l21.8,13c1.5,0.9,3.5,0.9,5,0
	c1.5-0.9,2.5-2.6,2.4-4.4l-0.2-5.4l0-0.7c9.8-2.4,30.3-4.9,38.6,1.6c16,12.4,4.2,35.9-2.5,42.1c-7.5,6.9-24.7,19.9-59.6,13.8
	c-26.5-4.7-30-6.5-36.2-21.5c-2.9,6.8-7,14.7-10.5,21.8c-1.5,3.1-3.1,6.5-4.7,9.4c23,11.3,90.8,4.7,103.2,3.2
	c4.2-1,14.2-2.1,22.2-12.6C243.7,176.6,252.1,144.5,243.4,130.3z"/>
</svg>
