<?xml version="1.0" encoding="utf-8"?>
<!-- Generator: Adobe Illustrator 18.0.0, SVG Export Plug-In . SVG Version: 6.00 Build 0)  -->
<!DOCTYPE svg PUBLIC "-//W3C//DTD SVG 1.1//EN" "http://www.w3.org/Graphics/SVG/1.1/DTD/svg11.dtd">
<svg version="1.1" id="Laag_1" xmlns="http://www.w3.org/2000/svg" xmlns:xlink="http://www.w3.org/1999/xlink" x="0px" y="0px"
	 viewBox="0 0 511.9 260" enable-background="new 0 0 511.9 260" xml:space="preserve">
<g>
	<g>
		<g>
			<path fill="#8C8C8C" d="M296.2,106c2.5,0,4.7,0.2,6.6,0.6c1.9,0.4,3.6,1,5.1,1.7c1.5,0.7,2.7,1.6,3.7,2.6c1,1,1.8,2.1,2.4,3.3
				c0.6,1.2,1.1,2.5,1.4,3.8c0.3,1.3,0.4,2.7,0.4,4.1c0,1.9-0.2,3.9-0.6,5.8c-0.4,2-1,3.9-1.8,5.7c-0.8,1.8-1.8,3.6-3,5.2
				c-1.2,1.6-2.5,3-4,4.2c-1.5,1.2-3.2,2.1-5,2.8c-1.8,0.7-3.8,1-5.9,1c-0.7,0-1.4-0.1-2.2-0.2c-0.7-0.1-1.5-0.3-2.2-0.4
				c-0.7-0.2-1.4-0.4-2-0.6c-0.6-0.2-1.2-0.5-1.6-0.7c-0.2-0.1-0.4-0.1-0.5-0.2c-0.1-0.1-0.2-0.2-0.3-0.3c-0.1-0.1-0.1-0.3-0.1-0.4
				c0-0.2,0-0.4,0-0.6c0-2.5,0.1-5.1,0.2-7.8c0.1-2.6,0.4-5.2,0.8-7.8c0.4-2.5,1-4.9,1.7-7.2c0.7-2.3,1.7-4.3,3-6.1
				c1.1-0.7,2.1-1.1,2.9-1.1c1.1,0,2,0.6,2.8,1.9c-0.7,0.9-1.3,2-1.8,3.1c-0.5,1.2-0.9,2.4-1.2,3.6c-0.3,1.3-0.6,2.6-0.8,3.9
				c-0.2,1.3-0.4,2.6-0.6,3.9c-0.2,1.4-0.4,2.6-0.5,3.6c-0.1,1-0.3,1.9-0.3,2.6c-0.1,0.7-0.1,1.4-0.2,2c0,0.6-0.1,1.1-0.1,1.6
				c0,0.6,0,1,0.1,1.4c0,0.4,0.1,0.7,0.3,0.9c0.1,0.2,0.4,0.4,0.7,0.5c0.3,0.1,0.7,0.1,1.2,0.1c1.5,0,3-0.3,4.3-0.9
				c1.4-0.6,2.6-1.4,3.8-2.4c1.2-1,2.2-2.2,3.1-3.5c0.9-1.3,1.7-2.8,2.3-4.2c0.6-1.5,1.1-3,1.5-4.5c0.3-1.5,0.5-3,0.5-4.5
				c0-1.8-0.3-3.3-0.9-4.7s-1.4-2.6-2.4-3.5c-1-1-2.3-1.7-3.8-2.2c-1.5-0.5-3.1-0.8-4.8-0.8c-1.3,0-2.5,0.1-3.8,0.2
				c-1.3,0.2-2.4,0.4-3.5,0.7c-1.1,0.3-2,0.7-2.8,1.2c-0.8,0.5-1.4,1.1-1.8,1.8c-1.1,1.7-2,3-2.7,4c-0.7,0.9-1.3,1.4-1.8,1.4
				c-0.7,0-1-0.8-1-2.3c0-1.5,0.2-2.8,0.6-4c0.4-1.2,0.9-2.2,1.6-3.2c0.7-0.9,1.5-1.7,2.5-2.3c0.9-0.6,2-1.2,3.1-1.6
				c1.1-0.4,2.3-0.7,3.6-0.9C293.5,106.1,294.8,106,296.2,106z"/>
		</g>
		<g>
			<path fill="#8C8C8C" d="M329.4,140.7c-0.5,0.5-1.2,1-2,1.6s-1.7,1.1-2.6,1.6c-0.9,0.5-1.9,0.9-2.9,1.2c-1,0.3-1.9,0.5-2.8,0.5
				c-0.8,0-1.5-0.1-2-0.3c-0.5-0.2-1-0.5-1.3-0.9c-0.3-0.4-0.6-0.9-0.7-1.4c-0.1-0.6-0.2-1.2-0.2-1.9c0-1,0.1-2.1,0.3-3.3
				c0.2-1.3,0.5-2.6,0.8-3.9c0.3-1.4,0.7-2.7,1-4.1c0.4-1.4,0.7-2.6,0.9-3.7c0.1-0.4,0.3-0.7,0.6-1c0.3-0.3,0.7-0.5,1.1-0.7
				c0.4-0.2,0.8-0.3,1.3-0.4c0.4-0.1,0.8-0.1,1.2-0.1c0.6,0,1.1,0.1,1.3,0.4c0.2,0.2,0.3,0.6,0.3,0.9c0,0.3-0.1,0.8-0.2,1.4
				c-0.2,0.6-0.3,1.3-0.6,2.1c-0.2,0.8-0.5,1.7-0.7,2.6c-0.3,0.9-0.5,1.8-0.7,2.8c-0.2,0.9-0.4,1.8-0.6,2.7
				c-0.2,0.9-0.2,1.7-0.2,2.4c0,0.7,0.1,1.2,0.2,1.6c0.2,0.4,0.5,0.6,0.9,0.6c0.5,0,1.2-0.2,1.8-0.6c0.7-0.4,1.3-0.8,2-1.4
				c0.7-0.5,1.4-1.1,2-1.7c0.7-0.6,1.2-1.1,1.7-1.5V140.7z"/>
		</g>
		<g>
			<path fill="#8C8C8C" d="M325.1,140.8c0-0.7,0-1.4,0.1-2.3c0.1-0.9,0.2-1.8,0.3-2.8c0.1-1,0.3-2,0.5-3c0.2-1,0.4-2,0.6-2.9
				c0.2-0.9,0.4-1.8,0.6-2.6c0.2-0.8,0.4-1.4,0.6-1.9c0.1-0.3,0.2-0.6,0.4-0.8c0.1-0.2,0.3-0.4,0.4-0.5c0.2-0.1,0.4-0.2,0.6-0.2
				c0.2,0,0.5-0.1,0.9-0.1c0.4,0,0.7,0,0.9,0.1c0.2,0,0.4,0.1,0.5,0.3c0.1,0.1,0.2,0.4,0.2,0.6c0,0.3,0,0.6,0,1.1c0,0.6,0,1.2,0,2
				c0,0.8,0,1.6,0,2.4h0.3c0.3-0.6,0.6-1.3,1-2c0.4-0.8,0.8-1.5,1.3-2.1c0.5-0.7,1.1-1.2,1.7-1.7c0.6-0.4,1.4-0.7,2.2-0.7
				c0.3,0,0.6,0,0.8,0.1c0.3,0.1,0.5,0.2,0.7,0.4c0.2,0.2,0.4,0.4,0.5,0.7c0.1,0.3,0.2,0.6,0.2,0.9c0,0.3,0,0.6-0.1,1.1
				c-0.1,0.5-0.2,0.9-0.3,1.5s-0.2,1-0.3,1.5c-0.1,0.5-0.1,0.9-0.1,1.2c0,0.5,0.1,1,0.2,1.4c0.1,0.4,0.2,0.7,0.4,0.9
				c0.2,0.2,0.4,0.4,0.6,0.5c0.2,0.1,0.5,0.1,0.7,0.1c0.7,0,1.4-0.2,2.1-0.5c0.7-0.3,1.4-0.6,2-1c0.7-0.4,1.4-0.9,2.1-1.5l-0.3,5.3
				c-0.4,0.3-0.8,0.5-1.3,0.9c-0.5,0.3-1,0.6-1.6,0.9c-0.6,0.3-1.2,0.5-1.8,0.7c-0.6,0.2-1.2,0.3-1.9,0.3c-1.1,0-2.1-0.2-2.8-0.7
				c-0.7-0.5-1.3-1.1-1.7-1.8c-0.4-0.8-0.7-1.6-0.9-2.5s-0.4-1.9-0.5-2.8h-0.4l-4.1,11.4c-0.2,0.6-0.4,1.1-0.6,1.5
				c-0.2,0.4-0.4,0.7-0.6,0.9c-0.2,0.2-0.4,0.4-0.6,0.5c-0.2,0.1-0.5,0.1-0.8,0.1c-0.6,0-1.1-0.1-1.5-0.4c-0.4-0.3-0.7-0.6-0.9-1.1
				c-0.2-0.4-0.3-1-0.4-1.5C325.2,142,325.1,141.4,325.1,140.8z"/>
		</g>
		<g>
			<path fill="#8C8C8C" d="M351.7,145.6c-1.4,0-2.7-0.3-3.8-0.8c-1.1-0.5-2-1.2-2.7-2.1c-0.7-0.9-1.3-1.9-1.6-3
				c-0.4-1.1-0.5-2.4-0.5-3.6c0-0.9,0.1-1.8,0.3-2.7c0.2-0.9,0.4-1.9,0.8-2.8c0.3-0.9,0.8-1.8,1.3-2.6c0.5-0.8,1.1-1.6,1.8-2.2
				c0.7-0.6,1.5-1.1,2.3-1.5c0.9-0.4,1.8-0.6,2.9-0.6c0.9,0,1.6,0.1,2.4,0.4c0.7,0.3,1.4,0.7,1.9,1.2s1,1.1,1.3,1.8
				c0.3,0.7,0.5,1.5,0.5,2.3c0,0.9-0.2,1.9-0.7,2.8c-0.5,0.9-1.1,1.8-1.9,2.7c-0.8,0.8-1.8,1.6-2.9,2.2c-1.1,0.7-2.4,1.2-3.7,1.5
				c0.2,0.4,0.5,0.8,0.7,1c0.2,0.3,0.4,0.5,0.7,0.6c0.2,0.2,0.5,0.3,0.7,0.3c0.3,0.1,0.5,0.1,0.8,0.1c0.9,0,1.9-0.2,2.9-0.5
				c1-0.4,2-0.8,3-1.4c1-0.5,1.9-1.1,2.7-1.8c0.9-0.6,1.6-1.3,2.2-1.8l2.9,3.1c-1.3,1.4-2.8,2.6-4.3,3.7c-0.7,0.5-1.4,0.9-2.1,1.3
				c-0.8,0.4-1.5,0.8-2.4,1.2c-0.8,0.3-1.7,0.6-2.6,0.8C353.5,145.4,352.6,145.6,351.7,145.6z M348.6,134.8c0.5,0,1.1-0.1,1.8-0.4
				c0.6-0.3,1.2-0.6,1.8-1.1c0.6-0.4,1-0.9,1.4-1.4c0.4-0.5,0.6-1,0.6-1.5c0-0.7-0.1-1.2-0.4-1.7c-0.3-0.4-0.6-0.7-0.9-0.7
				c-0.7,0-1.2,0.1-1.7,0.4c-0.5,0.2-0.9,0.6-1.2,0.9c-0.3,0.4-0.6,0.8-0.8,1.3c-0.2,0.5-0.3,1-0.4,1.5c-0.1,0.5-0.2,1-0.2,1.5
				C348.6,134.1,348.6,134.5,348.6,134.8z"/>
		</g>
		<g>
			<path fill="#8C8C8C" d="M368.1,145.6c-1.4,0-2.6-0.3-3.7-0.8c-1.1-0.5-1.9-1.2-2.7-2.1c-0.7-0.9-1.3-1.9-1.6-3
				c-0.4-1.1-0.5-2.3-0.5-3.6c0-0.9,0.1-1.8,0.3-2.8c0.2-1,0.5-1.9,0.8-2.8c0.4-0.9,0.8-1.8,1.3-2.6c0.5-0.8,1.1-1.6,1.8-2.2
				c0.7-0.6,1.5-1.1,2.3-1.5c0.9-0.4,1.8-0.6,2.8-0.6c0.9,0,1.7,0.1,2.4,0.4c0.7,0.3,1.4,0.6,1.9,1.1c0.5,0.5,0.9,1,1.2,1.7
				c0.3,0.6,0.4,1.3,0.4,2.1c0,0.5-0.1,1-0.2,1.5c-0.1,0.5-0.3,1-0.6,1.4c-0.3,0.4-0.6,0.7-1,1c-0.4,0.2-0.8,0.4-1.3,0.4
				c-0.7,0-1.2-0.2-1.4-0.6c-0.2-0.4-0.3-0.9-0.3-1.6c0-0.3,0-0.6,0-0.9s0-0.6,0-0.8c0-0.4,0-0.7-0.1-0.9c-0.1-0.2-0.2-0.4-0.5-0.4
				c-0.6,0-1.2,0.1-1.6,0.4c-0.4,0.3-0.8,0.7-1.1,1.2c-0.3,0.5-0.6,1-0.7,1.6c-0.2,0.6-0.3,1.2-0.4,1.8c-0.1,0.6-0.2,1.2-0.2,1.7
				c0,0.5,0,1,0,1.4c0,0.5,0,1.1,0.1,1.7c0.1,0.6,0.3,1.1,0.6,1.6c0.3,0.5,0.6,0.9,1.1,1.2c0.5,0.3,1.1,0.5,1.8,0.5
				c0.7,0,1.5-0.2,2.4-0.7c0.9-0.4,1.8-1,2.7-1.7c0.9-0.7,1.7-1.4,2.5-2.3c0.8-0.8,1.5-1.6,2.1-2.3l1.6,2.6
				c-1.1,1.6-2.4,3.1-3.7,4.4c-0.6,0.5-1.2,1.1-1.8,1.6c-0.7,0.5-1.4,1-2.1,1.4c-0.7,0.4-1.5,0.7-2.3,1
				C369.7,145.4,368.9,145.6,368.1,145.6z"/>
		</g>
		<g>
			<path fill="#8C8C8C" d="M398.8,137.1c-0.3,1.6-1.5,2.9-3,4.1c-0.7,0.5-1.2,0.9-1.9,1.3c-1.2,0.7-2.3,1.2-3.2,1.7
				c-0.9,0.4-1.8,0.8-2.5,1c-0.7,0.2-1.4,0.3-2,0.3c-1.2,0-2.3-0.4-3.2-1.1c-0.9-0.7-1.7-1.8-2.3-3.2c-0.6-1.4-1.1-3.1-1.4-5
				c-0.3-2-0.5-4.2-0.5-6.7c0-1,0-2,0.1-3.1c0.1-1.1,0.2-2.2,0.3-3.2c-0.5-0.1-0.9-0.1-1.1-0.2c-0.3-0.1-0.5-0.1-0.8-0.2
				s-0.7-0.1-1.1-0.2c-0.5-0.1-1.1-0.1-2-0.2c-0.4,0-0.7-0.1-0.9-0.3c-0.2-0.1-0.4-0.3-0.5-0.5c-0.1-0.2-0.2-0.4-0.2-0.6
				c0-0.2,0-0.4,0-0.5c0-0.3,0.2-0.6,0.5-0.7c0.3-0.2,0.7-0.3,1.2-0.4c0.5-0.1,1-0.1,1.6-0.1c0.6,0,1.1,0,1.7,0c0.5,0,1,0,1.4,0
				c0.4,0,0.7,0,0.9,0c0.4-2.2,1-4.3,1.6-6.3c0.7-2,1.4-3.8,2.2-5.4c0.8-1.6,1.7-2.8,2.7-3.8c1-1,2-1.4,3.1-1.4
				c0.7,0,1.3,0.2,1.9,0.6c0.6,0.4,1.1,0.9,1.5,1.5c0.4,0.6,0.7,1.4,0.9,2.2c0.2,0.9,0.3,1.8,0.3,2.7c0,0.8-0.1,1.6-0.3,2.5
				c-0.2,0.9-0.5,1.8-0.9,2.7c-0.4,0.9-0.8,1.8-1.4,2.8c-0.5,0.9-1.1,1.8-1.6,2.8c0.1,0,0.4,0,0.7,0s0.7,0,1.2,0
				c0.4,0,0.9,0,1.4,0.1c0.5,0,1,0,1.5,0.1c0.5,0,0.9,0,1.3,0c0.4,0,0.8,0,1,0c0.3,0,0.6,0.2,0.7,0.5c0.1,0.3,0.2,0.7,0.2,1.2
				c0,0.6-0.2,1-0.5,1.4c-0.3,0.4-0.7,0.5-1.1,0.5h-9.2c-0.5,0.6-0.9,1.3-1.4,1.9c-0.5,0.6-0.9,1.2-1.3,1.7c-0.1,1-0.1,2-0.2,2.9
				c0,0.4,0,0.8,0,1.3c0,0.4,0,0.9,0,1.3c0,0.4,0,0.8,0,1.2c0,0.4,0,0.8,0,1.1c0,0.9,0.1,1.6,0.2,2.2c0.2,0.6,0.4,1.1,0.7,1.5
				c0.3,0.4,0.7,0.6,1.1,0.8c0.4,0.2,0.9,0.3,1.5,0.3c0.3,0,0.8-0.1,1.3-0.2c0.5-0.2,1.1-0.4,1.7-0.7c0.6-0.3,1.2-0.6,1.9-1
				c0.7-0.4,1.3-0.8,2-1.3c0.6-0.5,1.3-0.9,1.9-1.4c0.6-0.5,1.1-1.4,1.8-1.1C399,134.7,399.1,135.7,398.8,137.1z M390.4,109.8
				c0-0.2,0-0.4,0-0.6c0-0.2-0.1-0.4-0.2-0.6c-0.1-0.2-0.2-0.4-0.4-0.5c-0.2-0.1-0.4-0.2-0.7-0.2c-0.4,0-0.8,0.4-1.3,1.1
				s-0.8,1.7-1.2,2.8c-0.4,1.1-0.8,2.4-1.1,3.8c-0.3,1.4-0.7,2.7-0.9,4c0.2,0,0.5,0.1,0.7,0.1c0.2,0,0.5,0.1,0.7,0.1
				c0.5-0.8,1-1.7,1.5-2.7c0.5-1,1-1.9,1.4-2.8c0.4-0.9,0.8-1.8,1-2.6C390.2,110.9,390.4,110.3,390.4,109.8z"/>
		</g>
	</g>
</g>
<g>
	<path fill="#86CED5" d="M199.1,145.3c-0.7,0.7-1.6,1-2.6,1c-1.1,0-1.9-0.3-2.6-1c-0.7-0.7-1-1.5-1-2.6v-33.9c0-1,0.4-1.9,1.1-2.6
		c0.7-0.7,1.6-1,2.7-1c1,0,1.8,0.3,2.5,1c0.7,0.7,1.1,1.5,1.1,2.6v33.9C200.2,143.7,199.8,144.6,199.1,145.3z"/>
	<path fill="#86CED5" d="M241.6,143.1c0,1-0.3,1.8-1,2.5c-0.7,0.6-1.4,1-2.3,1c-0.7,0-1.3-0.2-1.9-0.6c-0.6-0.4-1-1-1.3-1.8
		l-3.1-7.1h-17.5l-3.1,7.2c-0.3,0.7-0.7,1.3-1.3,1.7c-0.6,0.4-1.2,0.6-1.8,0.6c-1,0-1.8-0.3-2.3-0.8c-0.5-0.5-0.8-1.3-0.8-2.2
		c0-0.4,0.1-0.7,0.2-1.1l14.6-35.1c0.3-0.8,0.8-1.4,1.4-1.8c0.6-0.4,1.3-0.6,2.1-0.5c0.7,0,1.4,0.2,2,0.6c0.6,0.4,1,1,1.3,1.7
		l14.4,34.4C241.5,142.2,241.6,142.7,241.6,143.1z M217.4,130.3h11.7l-5.9-13.7L217.4,130.3z"/>
	<path fill="#86CED5" d="M279.3,125.1c0.7,0.7,1,1.5,1,2.6v12.4c0,1.4-0.6,2.4-1.8,3.2c-3.8,2.4-8,3.6-12.6,3.6
		c-3.9,0-7.5-0.9-10.7-2.8c-3.3-1.9-5.9-4.5-7.8-7.7c-1.9-3.2-2.9-6.8-2.9-10.6c0-3.8,1-7.4,2.9-10.6c1.9-3.2,4.5-5.8,7.8-7.7
		c3.3-1.9,6.9-2.8,10.7-2.8c3.9,0,7.2,0.8,10.1,2.3c0.6,0.3,1,0.7,1.3,1.2c0.3,0.5,0.4,1.1,0.4,1.6c0,1-0.3,1.8-1,2.6
		c-0.6,0.7-1.4,1.1-2.4,1.1c-0.6,0-1.2-0.2-1.9-0.5c-2.1-0.9-4.3-1.4-6.6-1.4c-2.5,0-4.8,0.6-6.9,1.9c-2.1,1.3-3.8,3-5,5.1
		c-1.2,2.2-1.8,4.5-1.8,7c0,2.5,0.6,4.9,1.8,7c1.2,2.2,2.9,3.9,5,5.1c2.1,1.3,4.4,1.9,6.9,1.9c1.1,0,2.3-0.1,3.5-0.3
		c1.3-0.2,2.3-0.4,3.3-0.8v-7.6h-5.5c-1,0-1.9-0.3-2.6-1c-0.7-0.7-1-1.5-1-2.5c0-1,0.3-1.9,1-2.5c0.7-0.7,1.5-1,2.6-1h9.6
		C277.7,124.1,278.6,124.4,279.3,125.1z"/>
</g>
<g>
	<g>
		<path fill="#86CED5" d="M319.6,118.2c-0.6-0.6-0.8-1.3-0.8-2.4v-0.9c0-1,0.3-1.8,0.8-2.4c0.6-0.6,1.3-0.8,2.4-0.8h0.7
			c1,0,1.8,0.3,2.4,0.8c0.6,0.6,0.8,1.3,0.8,2.4v0.9c0,1-0.3,1.8-0.8,2.4c-0.6,0.6-1.3,0.8-2.4,0.8H322
			C321,119,320.2,118.7,319.6,118.2z"/>
	</g>
</g>
<g>
	<linearGradient id="SVGID_1_" gradientUnits="userSpaceOnUse" x1="71.5406" y1="120.0588" x2="150.7144" y2="120.0588">
		<stop  offset="0" style="stop-color:#F26869"/>
		<stop  offset="9.825748e-02" style="stop-color:#E85F60"/>
		<stop  offset="0.5073" style="stop-color:#D03E42"/>
		<stop  offset="0.8211" style="stop-color:#C32832"/>
		<stop  offset="1" style="stop-color:#BE1E2D"/>
	</linearGradient>
	<path fill="url(#SVGID_1_)" d="M88.8,154.7c-0.1-3-0.8-6.9,0.3-11.3c5.7-23.4,20.6-67,34.7-67.7c12.9-0.7,15.8,9.7,16.4,13.5
		l10.6-0.5c-0.9-1.5-1.3-4.1-2.4-10.6c-1.4-7.9-10.6-14.5-20.6-15.5c-0.1,0-0.2,0-0.3,0c-1.4-0.2-13-1.8-19.6,7.5
		c-5.3,7.5-7,10.6-7.5,11.7c-0.2,0.3-0.3,0.6-0.5,0.9c-1.1,1.5-4.8,7.2-12.2,24.2c0,0,0,0,0,0.1c-0.4,0.9-9.3,22.9-10.7,29.2
		c-1.4,6.2-11.2,30.4,0,41.4c0,0,0,0,0.1,0.1c0.2-0.3,0.4-0.6,0.5-0.9"/>
	<linearGradient id="SVGID_2_" gradientUnits="userSpaceOnUse" x1="81.5413" y1="169.2082" x2="81.5413" y2="169.2082">
		<stop  offset="0" style="stop-color:#F26869"/>
		<stop  offset="9.825748e-02" style="stop-color:#E85F60"/>
		<stop  offset="0.5073" style="stop-color:#D03E42"/>
		<stop  offset="0.8211" style="stop-color:#C32832"/>
		<stop  offset="1" style="stop-color:#BE1E2D"/>
	</linearGradient>
	<path fill="url(#SVGID_2_)" d="M81.5,169.2"/>
	
		<linearGradient id="SVGID_3_" gradientUnits="userSpaceOnUse" x1="6.2259" y1="307.9096" x2="32.7495" y2="307.9096" gradientTransform="matrix(0.9977 6.793304e-02 -6.793304e-02 0.9977 145.5618 -213.0651)">
		<stop  offset="0" style="stop-color:#F26869"/>
		<stop  offset="9.825748e-02" style="stop-color:#E85F60"/>
		<stop  offset="0.5073" style="stop-color:#D03E42"/>
		<stop  offset="0.8211" style="stop-color:#C32832"/>
		<stop  offset="1" style="stop-color:#BE1E2D"/>
	</linearGradient>
	<path fill="url(#SVGID_3_)" d="M134.3,86.5c-1.3,0.1-2.4,0.9-2.8,2.1c-0.5,1.2-0.3,2.5,0.6,3.5l11.9,13.8c0.6,0.7,1.5,1.1,2.4,1.2
		c0.2,0,0.4,0,0.6,0c1.1-0.1,2.1-0.8,2.6-1.8l8-15.7c0.6-1.1,0.5-2.4-0.2-3.5c-0.7-1-1.9-1.6-3.2-1.5l-3.7,0.4l-12,1.2L134.3,86.5z"
		/>
</g>
<path fill="#86CED5" d="M172.8,131.9c-6.9-11.3-14.9-13.1-17.9-13.4c-7.5-0.8-17.5,1.4-24.2,2.8l-0.1-4c0-1.3-0.8-2.4-1.9-3
	c-1.1-0.6-2.5-0.4-3.5,0.3l-14.6,10.9c-0.7,0.6-1.2,1.4-1.3,2.3c0,0.2,0,0.4,0,0.6c0.1,1.1,0.7,2.2,1.7,2.8l15.2,9
	c1.1,0.6,2.4,0.6,3.5,0c1.1-0.6,1.7-1.8,1.7-3l-0.1-3.7l0-0.5c6.8-1.6,21-3.4,26.8,1.1c11.1,8.6,2.9,24.9-1.8,29.2
	c-5.2,4.8-17.2,13.8-41.4,9.6c-18.4-3.2-20.8-4.5-25.2-14.9c-2,4.7-4.9,10.2-7.3,15.1c-1.1,2.2-2.2,4.5-3.3,6.5
	c16,7.8,63.1,3.2,71.7,2.2c2.9-0.7,9.8-1.5,15.4-8.7C173,164.1,178.8,141.8,172.8,131.9z"/>
</svg>
