<?xml version="1.0" encoding="utf-8"?>
<!-- Generator: Adobe Illustrator 18.0.0, SVG Export Plug-In . SVG Version: 6.00 Build 0)  -->
<!DOCTYPE svg PUBLIC "-//W3C//DTD SVG 1.1//EN" "http://www.w3.org/Graphics/SVG/1.1/DTD/svg11.dtd">
<svg version="1.1" id="Laag_1" xmlns="http://www.w3.org/2000/svg" xmlns:xlink="http://www.w3.org/1999/xlink" x="0px" y="0px"
	 viewBox="0 0 841.9 595.3" enable-background="new 0 0 841.9 595.3" xml:space="preserve">
<g>
	<g>
		<g>
			<path fill="#8C8C8C" d="M432.8,390c5.6,0,10.6,0.5,14.9,1.4c4.4,0.9,8.2,2.2,11.5,3.9c3.3,1.6,6.1,3.6,8.3,5.9
				c2.3,2.3,4.1,4.8,5.5,7.5c1.4,2.7,2.4,5.6,3.1,8.6c0.6,3,1,6.1,1,9.3c0,4.3-0.5,8.7-1.4,13.2c-1,4.5-2.4,8.8-4.2,12.9
				c-1.8,4.2-4.1,8.1-6.7,11.7c-2.7,3.6-5.7,6.8-9.1,9.5c-3.4,2.7-7.2,4.9-11.3,6.4c-4.1,1.6-8.6,2.3-13.4,2.3
				c-1.6,0-3.3-0.1-4.9-0.4c-1.7-0.2-3.3-0.6-4.9-1c-1.6-0.4-3.1-0.9-4.5-1.4c-1.4-0.5-2.6-1-3.7-1.6c-0.4-0.1-0.8-0.3-1.1-0.5
				c-0.3-0.2-0.5-0.4-0.6-0.7c-0.1-0.3-0.2-0.6-0.3-1s-0.1-0.9-0.1-1.4c0-5.7,0.1-11.5,0.4-17.5c0.3-6,0.9-11.8,1.8-17.5
				c0.9-5.7,2.2-11.1,3.9-16.3c1.7-5.2,3.9-9.8,6.7-13.9c2.4-1.7,4.7-2.5,6.7-2.5c2.5,0,4.6,1.4,6.3,4.2c-1.6,2.1-2.9,4.5-4,7.1
				c-1.1,2.6-2,5.4-2.7,8.2c-0.7,2.9-1.3,5.8-1.8,8.8c-0.5,3-0.9,5.9-1.3,8.8c-0.5,3.2-0.9,5.9-1.2,8.1c-0.3,2.2-0.6,4.2-0.8,5.9
				c-0.2,1.7-0.3,3.2-0.4,4.4c-0.1,1.3-0.1,2.5-0.1,3.7c0,1.3,0,2.3,0.1,3.2c0.1,0.9,0.3,1.5,0.6,2.1c0.3,0.5,0.8,0.9,1.5,1.1
				c0.7,0.2,1.6,0.3,2.7,0.3c3.4,0,6.7-0.7,9.8-2c3.1-1.4,5.9-3.2,8.6-5.5c2.6-2.3,5-4.9,7-8c2.1-3,3.8-6.2,5.3-9.6
				c1.5-3.4,2.6-6.8,3.4-10.3c0.8-3.5,1.2-6.8,1.2-10.1c0-4-0.7-7.6-2-10.7s-3.1-5.8-5.5-8c-2.4-2.2-5.2-3.8-8.5-5
				c-3.3-1.2-6.9-1.7-10.9-1.7c-2.9,0-5.7,0.2-8.6,0.5c-2.8,0.3-5.5,0.9-7.9,1.6c-2.4,0.7-4.6,1.6-6.4,2.8c-1.8,1.1-3.2,2.4-4.2,4
				c-2.5,3.9-4.6,6.9-6.2,9c-1.6,2.1-3,3.2-4.1,3.2c-1.5,0-2.3-1.7-2.3-5.2c0-3.4,0.4-6.4,1.3-9.1c0.9-2.7,2.1-5.1,3.7-7.1
				c1.6-2.1,3.4-3.8,5.6-5.3c2.1-1.5,4.5-2.7,7.1-3.6c2.6-0.9,5.3-1.6,8.2-2.1C426.8,390.3,429.7,390,432.8,390z"/>
			<path fill="#8C8C8C" d="M508,468.6c-1.2,1.1-2.8,2.3-4.6,3.6s-3.8,2.5-6,3.6c-2.1,1.1-4.3,2-6.5,2.7s-4.3,1.1-6.3,1.1
				c-1.8,0-3.3-0.2-4.5-0.7c-1.2-0.5-2.2-1.2-3-2.1c-0.8-0.9-1.3-2-1.6-3.3c-0.3-1.3-0.5-2.7-0.5-4.3c0-2.2,0.2-4.7,0.7-7.6
				c0.5-2.9,1.1-5.8,1.8-8.9c0.7-3.1,1.5-6.1,2.3-9.2c0.8-3.1,1.5-5.9,2.1-8.5c0.2-0.9,0.7-1.7,1.4-2.3c0.7-0.6,1.5-1.2,2.4-1.5
				s1.9-0.7,2.8-0.9c1-0.2,1.9-0.3,2.7-0.3c1.4,0,2.4,0.3,2.9,0.8c0.5,0.5,0.8,1.2,0.8,2.1c0,0.8-0.2,1.8-0.5,3.3
				c-0.3,1.4-0.8,3-1.3,4.8c-0.5,1.8-1.1,3.7-1.6,5.8c-0.6,2.1-1.1,4.2-1.6,6.2c-0.5,2.1-0.9,4.1-1.3,6.1c-0.3,2-0.5,3.8-0.5,5.3
				c0,1.5,0.2,2.8,0.5,3.7c0.3,0.9,1,1.4,2.1,1.4c1.2,0,2.6-0.4,4.1-1.3c1.5-0.9,3-1.9,4.6-3.1c1.5-1.2,3.1-2.5,4.5-3.8
				c1.5-1.3,2.8-2.4,3.9-3.4V468.6z"/>
			<path fill="#8C8C8C" d="M498.3,468.8c0-1.5,0.1-3.3,0.3-5.3c0.2-2,0.4-4.1,0.7-6.4c0.3-2.2,0.6-4.5,1-6.8
				c0.4-2.3,0.8-4.5,1.3-6.6c0.4-2.1,0.9-4,1.3-5.8s0.9-3.2,1.3-4.3c0.3-0.8,0.5-1.4,0.8-1.8c0.3-0.4,0.6-0.8,1-1.1
				c0.4-0.3,0.8-0.4,1.3-0.5c0.5-0.1,1.2-0.1,2-0.1c0.9,0,1.6,0,2.1,0.1c0.5,0.1,0.9,0.3,1.1,0.6c0.2,0.3,0.4,0.8,0.4,1.4
				c0.1,0.6,0.1,1.5,0.1,2.5c0,1.3,0,2.8,0,4.6c0,1.8,0,3.6,0.1,5.3h0.6c0.7-1.4,1.5-2.9,2.3-4.6c0.9-1.7,1.9-3.3,3-4.8
				c1.1-1.5,2.4-2.7,3.9-3.7c1.4-1,3.1-1.5,5-1.5c0.7,0,1.3,0.1,1.9,0.3c0.6,0.2,1.2,0.5,1.6,1c0.5,0.4,0.8,0.9,1.1,1.5
				s0.4,1.3,0.4,2c0,0.6-0.1,1.4-0.3,2.5c-0.2,1-0.4,2.1-0.6,3.3c-0.2,1.2-0.4,2.3-0.6,3.4c-0.2,1.1-0.3,2-0.3,2.7
				c0,1.2,0.1,2.3,0.4,3.1c0.2,0.8,0.6,1.5,1,2c0.4,0.5,0.8,0.8,1.3,1.1c0.5,0.2,1,0.3,1.6,0.3c1.5,0,3.1-0.3,4.8-1
				c1.6-0.7,3.2-1.5,4.5-2.3c1.6-1,3.2-2.1,4.7-3.4l-0.8,12.1c-0.9,0.6-1.9,1.2-3,2c-1.1,0.7-2.3,1.4-3.6,2c-1.3,0.6-2.6,1.2-4,1.6
				c-1.4,0.4-2.8,0.6-4.3,0.6c-2.6,0-4.7-0.5-6.2-1.6c-1.6-1-2.8-2.4-3.8-4.1s-1.6-3.6-2.1-5.7s-0.8-4.3-1.1-6.4h-0.8l-9.2,25.7
				c-0.5,1.3-0.9,2.4-1.4,3.3c-0.4,0.9-0.9,1.6-1.3,2.1c-0.4,0.5-0.9,0.9-1.4,1.2c-0.5,0.2-1.1,0.3-1.7,0.3c-1.4,0-2.5-0.3-3.4-0.9
				c-0.9-0.6-1.5-1.4-2-2.4c-0.5-1-0.8-2.2-0.9-3.5C498.4,471.5,498.3,470.1,498.3,468.8z"/>
			<path fill="#8C8C8C" d="M558.2,479.5c-3.2,0-6.1-0.6-8.5-1.8c-2.4-1.2-4.4-2.7-6.1-4.7c-1.6-2-2.8-4.3-3.6-6.9
				c-0.8-2.6-1.2-5.3-1.2-8.2c0-1.9,0.2-4,0.6-6.1c0.4-2.1,1-4.3,1.7-6.3c0.8-2.1,1.7-4,2.9-5.9c1.2-1.9,2.5-3.5,4.1-4.9
				c1.6-1.4,3.3-2.6,5.3-3.4c1.9-0.8,4.1-1.3,6.5-1.3c1.9,0,3.7,0.3,5.4,0.9c1.6,0.6,3.1,1.5,4.3,2.6c1.2,1.1,2.2,2.5,2.9,4
				c0.7,1.6,1,3.4,1,5.3c0,2.1-0.5,4.3-1.6,6.4c-1,2.1-2.5,4.1-4.4,6c-1.9,1.9-4.1,3.6-6.6,5.1c-2.6,1.5-5.3,2.6-8.3,3.5
				c0.5,0.9,1,1.7,1.5,2.3c0.5,0.6,1,1.1,1.5,1.4c0.5,0.3,1.1,0.6,1.6,0.7c0.6,0.1,1.2,0.2,1.8,0.2c2.1,0,4.2-0.4,6.5-1.2
				c2.3-0.8,4.5-1.9,6.7-3.1c2.2-1.2,4.2-2.6,6.1-4c1.9-1.5,3.6-2.8,4.9-4.1l6.7,6.9c-3,3.1-6.2,5.9-9.6,8.3c-1.5,1-3.1,2-4.8,3
				c-1.7,1-3.5,1.9-5.4,2.7c-1.9,0.8-3.8,1.4-5.8,1.9C562.3,479.3,560.3,479.5,558.2,479.5z M551.4,455.3c1.2,0,2.6-0.3,4-1
				c1.5-0.6,2.8-1.5,4.1-2.5c1.3-1,2.3-2.1,3.2-3.2c0.9-1.2,1.3-2.3,1.3-3.4c0-1.5-0.3-2.8-0.9-3.8s-1.3-1.5-2.1-1.5
				c-1.5,0-2.7,0.3-3.8,0.8c-1,0.6-1.9,1.3-2.6,2.1c-0.7,0.9-1.3,1.9-1.7,3c-0.4,1.1-0.8,2.2-1,3.4c-0.2,1.1-0.4,2.2-0.4,3.3
				C551.4,453.6,551.4,454.5,551.4,455.3z"/>
			<path fill="#8C8C8C" d="M595.3,479.5c-3.2,0-5.9-0.6-8.3-1.8c-2.4-1.2-4.4-2.7-6-4.7c-1.6-2-2.8-4.2-3.7-6.8
				c-0.8-2.6-1.2-5.3-1.2-8c0-2,0.2-4.1,0.6-6.2c0.4-2.2,1-4.3,1.8-6.4c0.8-2.1,1.8-4.1,3-6c1.2-1.9,2.6-3.5,4.1-5s3.3-2.6,5.2-3.4
				c1.9-0.8,4-1.3,6.3-1.3c2,0,3.8,0.3,5.4,0.9c1.7,0.6,3.1,1.4,4.3,2.5c1.2,1.1,2.1,2.3,2.8,3.8c0.7,1.5,1,3,1,4.7
				c0,1.2-0.2,2.3-0.5,3.5c-0.3,1.1-0.8,2.2-1.4,3.1c-0.6,0.9-1.3,1.6-2.2,2.2c-0.9,0.6-1.8,0.8-2.9,0.8c-1.6,0-2.7-0.4-3.2-1.3
				c-0.5-0.9-0.7-2-0.7-3.6c0-0.6,0-1.3,0.1-2c0.1-0.7,0.1-1.3,0.1-1.9c0-0.8-0.1-1.5-0.3-2.1c-0.2-0.5-0.6-0.8-1.1-0.8
				c-1.4,0-2.6,0.3-3.6,1c-1,0.7-1.8,1.5-2.6,2.6c-0.7,1.1-1.3,2.3-1.7,3.7c-0.4,1.4-0.7,2.7-1,4c-0.2,1.3-0.4,2.6-0.5,3.8
				c-0.1,1.2-0.1,2.2-0.1,3.1c0,1.2,0.1,2.5,0.3,3.9c0.2,1.3,0.6,2.6,1.3,3.7c0.6,1.1,1.5,2,2.5,2.8c1.1,0.7,2.4,1.1,4.1,1.1
				c1.6,0,3.5-0.5,5.5-1.5c2-1,4-2.3,6-3.8c2-1.5,3.9-3.2,5.7-5.1c1.8-1.9,3.4-3.6,4.7-5.3l3.6,6c-2.6,3.7-5.4,7-8.4,9.8
				c-1.3,1.2-2.7,2.4-4.2,3.6c-1.5,1.2-3.1,2.2-4.7,3.1c-1.6,0.9-3.3,1.6-5.1,2.2C598.9,479.2,597.1,479.5,595.3,479.5z"/>
			<path fill="#8C8C8C" d="M664.9,460.5c-0.6,3.6-3.5,6.6-6.8,9.3c-1.5,1.2-2.8,2-4.3,2.8c-2.7,1.5-5.1,2.8-7.3,3.8
				c-2.1,1-4,1.8-5.6,2.3c-1.6,0.5-3.1,0.8-4.5,0.8c-2.8,0-5.2-0.8-7.3-2.5c-2.1-1.7-3.9-4.1-5.3-7.2c-1.4-3.1-2.5-6.9-3.2-11.4
				c-0.7-4.5-1.1-9.5-1.1-15c0-2.2,0.1-4.5,0.3-7c0.2-2.5,0.4-4.9,0.8-7.3c-1.1-0.1-1.9-0.3-2.5-0.4c-0.6-0.1-1.2-0.3-1.9-0.4
				s-1.5-0.3-2.6-0.4c-1-0.1-2.5-0.3-4.5-0.5c-0.9-0.1-1.5-0.3-2-0.6c-0.5-0.3-0.8-0.7-1-1.1c-0.2-0.4-0.3-0.8-0.4-1.3
				c0-0.5-0.1-0.8-0.1-1.2c0-0.7,0.4-1.3,1.1-1.7c0.7-0.4,1.6-0.7,2.7-0.8c1.1-0.2,2.3-0.3,3.6-0.3c1.3,0,2.6,0,3.8,0
				c1.2,0,2.3,0.1,3.3,0.1c1,0,1.6,0,2-0.1c1-4.9,2.2-9.6,3.7-14.2c1.5-4.6,3.2-8.7,5.1-12.2c1.9-3.6,3.9-6.4,6.1-8.6
				c2.2-2.2,4.5-3.2,7-3.2c1.6,0,3,0.4,4.3,1.3c1.3,0.9,2.4,2,3.3,3.5c0.9,1.4,1.6,3.1,2.1,5.1c0.5,1.9,0.7,4,0.7,6.1
				c0,1.8-0.3,3.6-0.8,5.6c-0.5,2-1.2,4-2.1,6c-0.9,2-1.9,4.1-3.1,6.2c-1.2,2.1-2.4,4.2-3.7,6.2c0.3,0,0.9,0.1,1.6,0.1
				c0.8,0,1.6,0,2.6,0.1c1,0,2.1,0.1,3.2,0.1c1.2,0.1,2.3,0.1,3.4,0.1c1.1,0,2.1,0.1,3,0.1c0.9,0,1.7,0.1,2.3,0.1
				c0.7,0,1.2,0.4,1.6,1.1c0.3,0.7,0.5,1.6,0.5,2.6c0,1.3-0.4,2.3-1.1,3.1c-0.7,0.8-1.5,1.2-2.4,1.2h-20.9c-1.1,1.4-2.1,2.9-3.2,4.3
				c-1.1,1.4-2.1,2.7-3,3.8c-0.1,2.2-0.3,4.5-0.4,6.6c0,0.9-0.1,1.9-0.1,2.9c0,1-0.1,2-0.1,3c0,1-0.1,1.9-0.1,2.8c0,0.9,0,1.7,0,2.5
				c0,2,0.2,3.6,0.5,4.9c0.4,1.3,0.9,2.4,1.6,3.3c0.7,0.8,1.5,1.5,2.5,1.8c1,0.4,2.1,0.6,3.3,0.6c0.8,0,1.7-0.2,2.9-0.5
				c1.1-0.4,2.4-0.9,3.7-1.5c1.4-0.6,2.8-1.4,4.3-2.3c1.5-0.9,3-1.8,4.5-2.9c1.5-1,2.9-2.1,4.2-3.3c1.3-1.1,2.6-3.2,4.1-2.6
				C665.2,455,665.5,457.4,664.9,460.5z M645.7,398.6c0-0.4,0-0.8-0.1-1.3c-0.1-0.5-0.2-1-0.4-1.4c-0.2-0.4-0.5-0.8-0.8-1.1
				c-0.4-0.3-0.9-0.4-1.6-0.4c-0.9,0-1.9,0.8-2.9,2.5s-1.9,3.8-2.8,6.4c-0.9,2.6-1.7,5.4-2.5,8.6c-0.8,3.1-1.5,6.1-2.1,9.1
				c0.5,0.1,1.1,0.1,1.6,0.2c0.5,0.1,1.1,0.1,1.7,0.2c1.1-1.8,2.2-3.8,3.4-6c1.2-2.2,2.2-4.3,3.2-6.4c0.9-2.1,1.7-4,2.3-5.8
				C645.4,401.2,645.7,399.8,645.7,398.6z"/>
		</g>
	</g>
	<g>
		<path fill="#86CED5" d="M213.2,478.9c-1.7,1.6-3.6,2.3-5.8,2.3c-2.4,0-4.4-0.8-5.9-2.3c-1.6-1.5-2.3-3.5-2.3-5.8v-76.7
			c0-2.3,0.8-4.2,2.4-5.8c1.6-1.5,3.6-2.3,6.1-2.3c2.2,0,4.1,0.8,5.7,2.3c1.6,1.6,2.4,3.5,2.4,5.8v76.7
			C215.7,475.4,214.9,477.3,213.2,478.9z"/>
		<path fill="#86CED5" d="M309.4,474c0,2.3-0.8,4.2-2.3,5.6c-1.5,1.5-3.2,2.2-5.2,2.2c-1.6,0-3-0.5-4.3-1.5c-1.3-1-2.3-2.3-3-4
			l-6.9-16.1h-39.6l-6.9,16.2c-0.6,1.7-1.6,3-2.9,3.9c-1.3,0.9-2.7,1.4-4.2,1.4c-2.3,0-4.1-0.6-5.2-1.9c-1.2-1.2-1.8-2.9-1.8-5
			c0-0.8,0.1-1.6,0.4-2.5l33.1-79.4c0.7-1.8,1.8-3.1,3.2-4.1c1.4-1,3-1.4,4.8-1.2c1.6,0,3.1,0.5,4.4,1.4c1.4,0.9,2.4,2.2,3,3.9
			l32.7,77.8C309.2,472,309.4,473.1,309.4,474z M254.8,445.1h26.5L267.9,414L254.8,445.1z"/>
		<path fill="#86CED5" d="M394.5,433.4c1.5,1.5,2.3,3.5,2.3,5.8v28.1c0,3.1-1.4,5.5-4.1,7.2c-8.7,5.4-18.2,8.1-28.5,8.1
			c-8.8,0-16.9-2.1-24.3-6.4c-7.4-4.3-13.3-10.1-17.7-17.4c-4.3-7.3-6.5-15.3-6.5-24c0-8.7,2.2-16.7,6.5-24
			c4.3-7.3,10.2-13.1,17.7-17.4c7.4-4.3,15.5-6.4,24.3-6.4c8.8,0,16.4,1.8,22.8,5.3c1.3,0.7,2.3,1.6,3,2.8c0.7,1.2,1,2.4,1,3.7
			c0,2.2-0.7,4.1-2.2,5.8c-1.5,1.6-3.3,2.5-5.4,2.5c-1.3,0-2.8-0.3-4.4-1.1c-4.8-2-9.7-3-14.9-3c-5.7,0-10.9,1.4-15.7,4.3
			c-4.8,2.9-8.6,6.7-11.3,11.6c-2.8,4.9-4.2,10.2-4.2,15.9c0,5.8,1.4,11.1,4.2,15.9c2.8,4.9,6.6,8.7,11.3,11.6
			c4.8,2.9,10,4.3,15.7,4.3c2.5,0,5.1-0.2,8-0.7c2.8-0.4,5.3-1,7.4-1.7V447H367c-2.3,0-4.2-0.8-5.8-2.3c-1.6-1.5-2.3-3.4-2.3-5.7
			c0-2.3,0.8-4.2,2.3-5.7c1.5-1.5,3.5-2.3,5.8-2.3h21.8C391.1,431,393,431.8,394.5,433.4z"/>
	</g>
	<g>
		<g>
			<path fill="#86CED5" d="M485.8,417.6c-1.3-1.2-1.9-3-1.9-5.4v-2.1c0-2.3,0.6-4.1,1.9-5.4c1.2-1.2,3-1.9,5.4-1.9h1.6
				c2.3,0,4.1,0.6,5.4,1.9c1.2,1.3,1.9,3,1.9,5.4v2.1c0,2.3-0.6,4.1-1.9,5.4c-1.3,1.3-3,1.9-5.4,1.9h-1.6
				C488.8,419.5,487,418.9,485.8,417.6z"/>
		</g>
	</g>
	<g>
		<linearGradient id="SVGID_1_" gradientUnits="userSpaceOnUse" x1="314.7718" y1="207.5868" x2="493.7773" y2="207.5868">
			<stop  offset="0" style="stop-color:#F26869"/>
			<stop  offset="9.825748e-02" style="stop-color:#E85F60"/>
			<stop  offset="0.5073" style="stop-color:#D03E42"/>
			<stop  offset="0.8211" style="stop-color:#C32832"/>
			<stop  offset="1" style="stop-color:#BE1E2D"/>
		</linearGradient>
		<path fill="url(#SVGID_1_)" d="M353.7,286c-0.3-6.9-1.8-15.5,0.7-25.5c12.8-52.9,46.5-151.5,78.6-153.1
			c29.2-1.5,35.8,21.9,37,30.5l23.9-1.1c-2.1-3.5-2.9-9.3-5.4-23.9c-3.1-18-24-32.9-46.5-35c-0.2,0-0.4,0.1-0.7,0
			c-3.2-0.5-29.4-4.1-44.3,17c-12,17-15.9,24-17,26.4c-0.4,0.7-0.7,1.4-1.2,2c-2.4,3.3-10.8,16.2-27.6,54.7c0,0,0,0.1,0,0.1
			c-0.8,1.9-21.1,51.9-24.2,66c-3.1,13.9-25.4,68.6-0.1,93.6c0,0,0.1,0.1,0.1,0.1c0.4-0.7,0.8-1.4,1.2-2.1"/>
		<linearGradient id="SVGID_2_" gradientUnits="userSpaceOnUse" x1="337.3825" y1="318.7097" x2="337.3825" y2="318.7097">
			<stop  offset="0" style="stop-color:#F26869"/>
			<stop  offset="9.825748e-02" style="stop-color:#E85F60"/>
			<stop  offset="0.5073" style="stop-color:#D03E42"/>
			<stop  offset="0.8211" style="stop-color:#C32832"/>
			<stop  offset="1" style="stop-color:#BE1E2D"/>
		</linearGradient>
		<path fill="url(#SVGID_2_)" d="M337.4,318.7"/>
		
			<linearGradient id="SVGID_3_" gradientUnits="userSpaceOnUse" x1="346.8087" y1="333.9474" x2="406.7766" y2="333.9474" gradientTransform="matrix(0.9977 6.793304e-02 -6.793304e-02 0.9977 125.5577 -206.8081)">
			<stop  offset="0" style="stop-color:#F26869"/>
			<stop  offset="9.825748e-02" style="stop-color:#E85F60"/>
			<stop  offset="0.5073" style="stop-color:#D03E42"/>
			<stop  offset="0.8211" style="stop-color:#C32832"/>
			<stop  offset="1" style="stop-color:#BE1E2D"/>
		</linearGradient>
		<path fill="url(#SVGID_3_)" d="M456.6,131.8c-2.9,0.3-5.3,2.1-6.4,4.8c-1.1,2.7-0.6,5.7,1.3,7.9l26.9,31.3
			c1.4,1.6,3.3,2.5,5.3,2.7c0.5,0,1,0,1.5,0c2.6-0.3,4.8-1.9,6-4.2l18.1-35.6c1.3-2.5,1.1-5.5-0.5-7.8c-1.6-2.3-4.3-3.6-7.1-3.3
			l-8.4,0.8l-27.1,2.6L456.6,131.8z"/>
	</g>
	<path fill="#86CED5" d="M543.7,234.4c-15.5-25.5-33.7-29.6-40.5-30.4c-16.9-1.8-39.5,3.1-54.7,6.3l-0.3-9.2
		c-0.1-2.9-1.8-5.5-4.4-6.7c-2.6-1.3-5.7-1-8,0.8l-33,24.7c-1.7,1.3-2.7,3.1-3,5.1c-0.1,0.5-0.1,1-0.1,1.5c0.1,2.6,1.6,4.9,3.8,6.2
		l34.3,20.4c2.4,1.4,5.4,1.4,7.9,0c2.4-1.4,3.9-4.1,3.8-6.9l-0.3-8.5l0-1c15.4-3.7,47.6-7.7,60.6,2.5c25.1,19.5,6.6,56.3-4,66.1
		c-11.7,10.8-38.8,31.2-93.6,21.6c-41.6-7.3-47.1-10.3-56.9-33.8c-4.5,10.6-11,23.1-16.5,34.2c-2.4,4.9-4.9,10.3-7.4,14.7
		c36.1,17.7,142.6,7.3,162.1,5c6.6-1.6,22.3-3.3,34.9-19.7C544.2,307.1,557.3,256.7,543.7,234.4z"/>
</g>
</svg>
