<?xml version="1.0" encoding="utf-8"?>
<!-- Generator: Adobe Illustrator 17.1.0, SVG Export Plug-In . SVG Version: 6.00 Build 0)  -->
<!DOCTYPE svg PUBLIC "-//W3C//DTD SVG 1.1//EN" "http://www.w3.org/Graphics/SVG/1.1/DTD/svg11.dtd">
<svg version="1.1" id="Layer_1" xmlns="http://www.w3.org/2000/svg" xmlns:xlink="http://www.w3.org/1999/xlink" x="0px" y="0px"
	 viewBox="0 0 85.039368 56.692913" enable-background="new 0 0 85.039368 56.692913" xml:space="preserve">
<g>
	<defs>
		<polygon id="SVGID_1_" points="0,0.488732 85.039368,0.488732 84.961418,56.096668 0.017941,56.204182 		"/>
	</defs>
	<clipPath id="SVGID_2_">
		<use xlink:href="#SVGID_1_"  overflow="visible"/>
	</clipPath>
	<path clip-path="url(#SVGID_2_)" d="M12.793355,48.069801c-2.360145,0.009174-4.044476,1.518368-4.051384,3.925503
		c0.006908,2.408287,1.691239,3.918621,4.051384,3.925503c2.36129-0.006882,4.044471-1.517216,4.049079-3.925503
		C16.837826,49.588169,15.154645,48.078976,12.793355,48.069801 M12.793355,54.610012
		c-1.523156-0.002293-2.535141-1.115837-2.537442-2.614708c0.002301-1.496574,1.014286-2.612411,2.537442-2.614708
		c1.524302,0.002296,2.535136,1.118134,2.537437,2.614708C15.328491,53.494175,14.317657,54.607719,12.793355,54.610012"/>
	<path clip-path="url(#SVGID_2_)" d="M18.585831,51.995537c0.006903,2.408283,1.69124,3.918621,4.05138,3.925503
		c1.093723,0,2.155212-0.204132,3.119993-0.691521v-3.823441h-2.773453v1.310799h1.391907v0.128441v1.332584l-0.066778,0.035549
		c-0.335026,0.182339-0.903761,0.396793-1.671669,0.396793c-1.523153-0.002293-2.535137-1.115837-2.537437-2.614708
		c0.0023-1.496574,1.014284-2.612415,2.537437-2.614708c0.828928-0.002296,1.414932,0.230507,1.87775,0.672028l1.023495-1.111256
		c-0.735672-0.625004-1.74535-0.871567-2.901245-0.871567C20.277071,48.079208,18.592733,49.587254,18.585831,51.995537"/>
	<polygon clip-path="url(#SVGID_2_)" points="28.320663,55.725391 33.52103,55.725391 33.52103,54.414597 29.768984,54.414597 
		29.768984,52.584305 33.127289,52.584305 33.127289,51.27351 29.768984,51.27351 29.768984,49.577389 33.325314,49.577389 
		33.325314,48.267742 28.320663,48.267742 	"/>
	<path clip-path="url(#SVGID_2_)" d="M37.783329,55.921955c1.561146-0.009174,2.854046-0.772945,2.857498-2.410576
		c-0.00576-1.279831-0.808205-1.669743-1.692394-1.965622c-0.85886-0.28899-1.84206-0.385323-1.875446-1.238544
		c0.017269-0.704136,0.775967-0.925468,1.28138-0.927761c0.40065,0.004585,0.906063,0.136471,1.233028,0.450695l0.985504-1.071114
		c-0.611332-0.489685-1.37809-0.688084-2.187447-0.688084c-1.479404,0.006882-2.821808,0.819965-2.824108,2.377323
		c0.004604,1.207581,0.82317,1.608959,1.729233,1.924332c0.873829,0.309635,1.869694,0.446106,1.90308,1.302765
		c-0.014969,0.665146-0.726463,0.933498-1.311317,0.935791c-0.559525,0-1.113293-0.243122-1.492069-0.662849l-1.026947,1.123863
		C36.05294,55.661633,36.857693,55.919662,37.783329,55.921955"/>
	<path clip-path="url(#SVGID_2_)" d="M42.397461,51.995537c0.006905,2.408283,1.687786,3.918621,4.049076,3.925503
		c0.987808,0,1.996338-0.379593,2.620335-1.183502l-1.212307-0.901382c-0.376476,0.490829-0.948669,0.776382-1.624474,0.77409
		c-1.318218-0.002293-2.318687-1.118134-2.320992-2.614708c0.002304-1.494282,1.005074-2.612415,2.375107-2.614708
		c0.614784-0.002296,1.120205,0.208717,1.480553,0.583721l1.115601-0.908268
		c-0.626301-0.720192-1.629074-0.986248-2.433823-0.986248C44.085247,48.079208,42.404366,49.587254,42.397461,51.995537"/>
	<polygon clip-path="url(#SVGID_2_)" points="56.105503,52.38969 56.105503,55.725735 57.550365,55.725735 57.550365,48.266937 
		56.105503,48.266937 56.105503,51.144264 52.528446,51.144264 52.528446,48.266937 51.082424,48.266937 51.082424,55.725735 
		52.528446,55.725735 52.528446,52.38969 	"/>
	<path clip-path="url(#SVGID_2_)" d="M63.694569,48.069801c-2.360146,0.009174-4.044476,1.518368-4.049088,3.925503
		c0.004612,2.408287,1.688942,3.918621,4.049088,3.925503c2.361286-0.006882,4.044468-1.517216,4.052532-3.925503
		C67.739037,49.588169,66.055855,48.078976,63.694569,48.069801 M63.694569,54.610012
		c-1.523159-0.002293-2.535141-1.115837-2.537441-2.614708c0.0023-1.496574,1.014282-2.612411,2.537441-2.614708
		c1.524303,0.002296,2.53513,1.118134,2.537434,2.614708C66.229698,53.494175,65.218872,54.607719,63.694569,54.610012"/>
	<path clip-path="url(#SVGID_2_)" d="M73.538422,48.069801c-2.360146,0.009174-4.042175,1.518368-4.049088,3.925503
		c0.006912,2.408287,1.688942,3.918621,4.049088,3.925503c2.362434-0.006882,4.044464-1.517216,4.051376-3.925503
		C77.582886,49.588169,75.900856,48.078976,73.538422,48.069801 M73.538422,54.610012
		c-1.523163-0.002293-2.535141-1.115837-2.537445-2.614708c0.002304-1.496574,1.014282-2.612411,2.537445-2.614708
		c1.523148,0.002296,2.535133,1.118134,2.53743,2.614708C76.073555,53.494175,75.061569,54.607719,73.538422,54.610012"/>
	<polygon clip-path="url(#SVGID_2_)" points="79.812599,55.725391 84.423508,55.725391 84.423508,54.414597 81.260918,54.414597 
		81.260918,48.267742 79.812599,48.267742 	"/>
	<polygon clip-path="url(#SVGID_2_)" points="62.278595,3.216671 62.278595,39.472809 81.316292,39.472809 84.689568,32.580528 
		69.19783,32.580528 69.19783,2.363455 	"/>
	<polygon clip-path="url(#SVGID_2_)" points="49.38728,39.472458 56.306515,39.472458 56.306515,3.950282 49.38728,4.797766 
		49.38728,16.779549 37.835255,21.123631 37.835255,6.207181 30.916012,7.055821 30.916012,39.472458 37.835255,39.472458 
		37.835255,28.490685 49.38728,24.145456 	"/>
	<polygon clip-path="url(#SVGID_2_)" points="18.842682,32.620205 18.842682,39.472347 25.760771,39.472347 25.760771,7.693329 
		18.842682,8.540813 18.842682,22.485922 7.17783,9.951384 0.179149,10.805745 0.179149,39.472347 7.09724,39.472347 
		7.09724,20.006538 	"/>
	<polygon clip-path="url(#SVGID_2_)" points="0.049399,48.137352 1.756759,48.137352 1.756759,51.015823 5.072468,51.015823 
		5.072468,48.137352 6.779828,48.137352 6.779828,55.855328 5.072468,55.855328 5.072468,52.519279 1.756759,52.519279 
		1.756759,55.855328 0.049399,55.855328 	"/>
	<path clip-path="url(#SVGID_2_)" d="M12.79393,47.941479c2.418854,0,4.180323,1.580292,4.180323,4.055088
		c0,2.473656-1.761469,4.055092-4.180323,4.055092c-2.418859,0-4.180327-1.581436-4.180327-4.055092
		C8.613603,49.52177,10.375072,47.941479,12.79393,47.941479 M12.79393,54.481686c1.455228,0,2.407343-1.045879,2.407343-2.485119
		c0-1.439236-0.952115-2.486263-2.407343-2.486263c-1.455233,0-2.407348,1.047028-2.407348,2.486263
		C10.386582,53.435806,11.338697,54.481686,12.79393,54.481686"/>
	<path clip-path="url(#SVGID_2_)" d="M25.887646,55.310482c-1.007378,0.522942-2.112617,0.740833-3.25009,0.740833
		c-2.418854,0-4.181477-1.580292-4.181477-4.055092c0-2.474796,1.762623-4.055088,4.181477-4.055088
		c1.22497,0,2.309486,0.27179,3.085453,0.990837l-1.203098,1.309643c-0.459362-0.480507-1.017736-0.731655-1.882355-0.731655
		c-1.455227,0-2.408493,1.047028-2.408493,2.486263c0,1.43924,0.953266,2.485119,2.408493,2.485119
		c0.743732,0,1.290592-0.206425,1.608349-0.380737v-1.253452H22.8563v-1.571121h3.031345V55.310482z"/>
	<polygon clip-path="url(#SVGID_2_)" points="28.191372,48.137352 33.455059,48.137352 33.455059,49.707325 29.898731,49.707325 
		29.898731,51.145412 33.25819,51.145412 33.25819,52.715382 29.898731,52.715382 29.898731,54.285355 33.651932,54.285355 
		33.651932,55.855328 28.191372,55.855328 	"/>
	<path clip-path="url(#SVGID_2_)" d="M39.590046,50.023266c-0.27401-0.349773-0.820869-0.512619-1.236485-0.512619
		c-0.482391,0-1.148987,0.217888-1.148987,0.795879c0,1.407124,3.566689,0.5023,3.566689,3.205311
		c0,1.722496-1.389606,2.540165-2.987591,2.540165c-0.995865,0-1.870842-0.294727-2.604214-0.970192l1.214607-1.330292
		c0.349995,0.457573,0.91988,0.730511,1.488617,0.730511c0.558376,0,1.182373-0.261467,1.182373-0.806198
		c0-1.418598-3.633469-0.654827-3.633469-3.228249c0-1.644512,1.433357-2.50576,2.954208-2.50576
		c0.876129,0,1.718872,0.22821,2.375107,0.806198L39.590046,50.023266z"/>
	<path clip-path="url(#SVGID_2_)" d="M47.750259,50.143105c-0.339638-0.403671-0.83239-0.633034-1.466743-0.633034
		c-1.291748,0-2.243862,1.047031-2.243862,2.486267s0.952114,2.485119,2.189743,2.485119
		c0.688473,0,1.246845-0.303902,1.59684-0.827991l1.422993,1.057354c-0.64587,0.915146-1.739597,1.340611-2.801083,1.340611
		c-2.418854,0-4.181477-1.58144-4.181477-4.055092c0-2.4748,1.762623-4.055092,4.181477-4.055092
		c0.864616,0,1.958344,0.293583,2.61573,1.133041L47.750259,50.143105z"/>
	<polygon clip-path="url(#SVGID_2_)" points="50.951759,48.137352 52.659115,48.137352 52.659115,51.015823 55.974827,51.015823 
		55.974827,48.137352 57.682182,48.137352 57.682182,55.855328 55.974827,55.855328 55.974827,52.519279 52.659115,52.519279 
		52.659115,55.855328 50.951759,55.855328 	"/>
	<path clip-path="url(#SVGID_2_)" d="M63.695721,47.941479c2.41885,0,4.180325,1.580292,4.180325,4.055088
		c0,2.473656-1.761475,4.055092-4.180325,4.055092c-2.418865,0-4.180332-1.581436-4.180332-4.055092
		C59.515388,49.52177,61.276855,47.941479,63.695721,47.941479 M63.695721,54.481686
		c1.455227,0,2.407337-1.045879,2.407337-2.485119c0-1.439236-0.95211-2.486263-2.407337-2.486263
		c-1.455238,0-2.407349,1.047028-2.407349,2.486263C61.288372,53.435806,62.240482,54.481686,63.695721,54.481686"/>
	<path clip-path="url(#SVGID_2_)" d="M73.539581,47.941479c2.418854,0,4.180321,1.580292,4.180321,4.055088
		c0,2.473656-1.761467,4.055092-4.180321,4.055092c-2.418861,0-4.180336-1.581436-4.180336-4.055092
		C69.359245,49.52177,71.12072,47.941479,73.539581,47.941479 M73.539581,54.481686c1.455223,0,2.407333-1.045879,2.407333-2.485119
		c0-1.439236-0.95211-2.486263-2.407333-2.486263c-1.455238,0-2.407349,1.047028-2.407349,2.486263
		C71.132233,53.435806,72.084343,54.481686,73.539581,54.481686"/>
	<polygon clip-path="url(#SVGID_2_)" points="79.683891,48.137352 81.391243,48.137352 81.391243,54.285355 84.553833,54.285355 
		84.553833,55.855328 79.683891,55.855328 	"/>
	<polygon clip-path="url(#SVGID_2_)" points="69.329086,32.450596 69.329086,2.217463 62.149651,3.105089 62.149651,39.602051 
		81.398033,39.602051 84.900246,32.450596 	"/>
	<polygon clip-path="url(#SVGID_2_)" points="49.258564,4.68377 49.258564,16.691933 37.966728,20.936245 37.966728,6.061084 
		30.787296,6.942971 30.787296,39.602737 37.966728,39.602737 37.966728,28.580826 49.258564,24.336512 49.258564,39.602737 
		56.438,39.602737 56.438,3.805322 	"/>
	<polygon clip-path="url(#SVGID_2_)" points="18.711779,8.42659 18.711779,22.153807 7.22883,9.81652 0.049399,10.691525 
		0.049399,39.602394 7.22883,39.602394 7.22883,20.336128 18.711779,32.671127 18.711779,39.602394 25.891212,39.602394 
		25.891212,7.548141 	"/>
</g>
</svg>
