<svg id="Layer_1" data-name="Layer 1" xmlns="http://www.w3.org/2000/svg" viewBox="0 0 265 265"><defs><style>.cls-1{fill:#2a3a89;}</style></defs><title>ArchiveIcon</title><path class="cls-1" d="M246.76,224H18.24A12.72,12.72,0,0,1,5.5,211.32V84.71A12.71,12.71,0,0,1,18.24,72h0l162.28.31,6.92-7.68a12.78,12.78,0,0,1,9.48-4.22h41.49a12.68,12.68,0,0,1,9,3.69l8.33,8.25a12.74,12.74,0,0,1,3.75,9V211.32A12.72,12.72,0,0,1,246.76,224ZM19.5,210h226V81.94l-7.57-7.5H197.48l-6.92,7.68a12.78,12.78,0,0,1-9.48,4.22h0L19.5,86Z"/><path class="cls-1" d="M246,224H19c-7.44,0-13.5-6.61-13.5-14.74V58.69A15.43,15.43,0,0,1,9.88,47.79,12.86,12.86,0,0,1,19,43.95h0l161.13.36,6.68-8.92A13,13,0,0,1,197.28,30h40.84a13,13,0,0,1,10,4.77l7.89,9.4a15.5,15.5,0,0,1,3.54,10V209.22C259.5,217.35,253.45,224,246,224ZM19.63,210H245.37a2,2,0,0,0,.13-.74V54.14a1.67,1.67,0,0,0-.26-1L237.54,44H197.87l-6.68,8.92a13,13,0,0,1-10.45,5.39h0L19.63,57.95a2,2,0,0,0-.13.74V209.22A2,2,0,0,0,19.63,210Z"/><path class="cls-1" d="M192.17,121.22H73.48a7,7,0,0,1,0-14H192.17a7,7,0,0,1,0,14Z"/><path class="cls-1" d="M192.17,156.93H73.48a7,7,0,0,1,0-14H192.17a7,7,0,0,1,0,14Z"/></svg>