<svg id="Layer_1" data-name="Layer 1" xmlns="http://www.w3.org/2000/svg" viewBox="0 0 265 265"><defs><style>.cls-1{fill:#2a3a89;}.cls-2{fill:#fff;}</style></defs><title>ContactIcon</title><path class="cls-1" d="M40.75,62.25h206a12,12,0,0,1,12,12v128a0,0,0,0,1,0,0h-230a0,0,0,0,1,0,0v-128A12,12,0,0,1,40.75,62.25Z" transform="translate(276 -11.5) rotate(90)"/><path class="cls-1" d="M-54.25,123.25h230a0,0,0,0,1,0,0v9a10,10,0,0,1-10,10H-44.75a9.5,9.5,0,0,1-9.5-9.5v-9.5a0,0,0,0,1,0,0Z" transform="translate(193.5 72) rotate(90)"/><path class="cls-2" d="M134.84,126.37a26,26,0,1,1,26-26A26,26,0,0,1,134.84,126.37Zm0-45.7a19.66,19.66,0,1,0,19.57,19.66A19.64,19.64,0,0,0,134.84,80.67Z"/><path class="cls-2" d="M172.56,190.22H94.93a5.37,5.37,0,0,1-5.35-4.8,55.74,55.74,0,0,1,13.77-43.32c8.65-9.59,19.82-15.07,30.63-15s21.81,5.57,30.36,15.14a55.78,55.78,0,0,1,13.57,43.2A5.37,5.37,0,0,1,172.56,190.22Zm-76.72-6.39h75.81a49.33,49.33,0,0,0-12.07-37.34c-7.24-8.11-16.82-13-25.63-13s-18.52,4.78-25.85,12.9A49.29,49.29,0,0,0,95.84,183.83Z"/></svg>