<svg id="Layer_1" data-name="Layer 1" xmlns="http://www.w3.org/2000/svg" viewBox="0 0 265 265"><title>FeedbackIcon</title><path d="M40.48,244.5a11,11,0,0,1-3.84-.69,10.91,10.91,0,0,1-7.09-9.07L24.34,188H17.28A11.9,11.9,0,0,1,9,184.53a11.67,11.67,0,0,1-3.46-8.32V32.26A11.78,11.78,0,0,1,17.28,20.5H247.72A11.78,11.78,0,0,1,259.5,32.26V176.21A11.78,11.78,0,0,1,247.72,188H105.41L48,241.54A10.93,10.93,0,0,1,40.48,244.5ZM19.5,174H36.87l5.92,53.25L99.89,174H245.5V34.5H19.5Z" style="fill:#2a3a89"/><path d="M133.69,125.09a20.86,20.86,0,1,1,20.92-20.86A20.91,20.91,0,0,1,133.69,125.09Zm0-31.72a10.86,10.86,0,1,0,10.92,10.86A10.9,10.9,0,0,0,133.69,93.37Z" style="fill:#2a3a89"/><path d="M73.69,125.09a20.86,20.86,0,1,1,20.92-20.86A20.91,20.91,0,0,1,73.69,125.09Zm0-31.72a10.86,10.86,0,1,0,10.92,10.86A10.9,10.9,0,0,0,73.69,93.37Z" style="fill:#2a3a89"/><path d="M193.69,125.09a20.86,20.86,0,1,1,20.92-20.86A20.91,20.91,0,0,1,193.69,125.09Zm0-31.72a10.86,10.86,0,1,0,10.92,10.86A10.9,10.9,0,0,0,193.69,93.37Z" style="fill:#2a3a89"/></svg>