<svg id="Layer_1" data-name="Layer 1" xmlns="http://www.w3.org/2000/svg" viewBox="0 0 265 265"><defs><style>.cls-1,.cls-2{fill:none;stroke:#2a3a89;stroke-miterlimit:10;stroke-width:10px;}.cls-2{stroke-linecap:round;}</style></defs><title>GiveFeedbackIcon</title><rect class="cls-1" x="28.5" y="142" width="208" height="93" rx="4" ry="4"/><line class="cls-2" x1="44" y1="163.5" x2="173" y2="163.5"/><line class="cls-2" x1="44" y1="179.5" x2="141" y2="179.5"/><line class="cls-2" x1="44" y1="196.5" x2="141" y2="196.5"/><line class="cls-2" x1="44" y1="213.5" x2="141" y2="213.5"/><path class="cls-2" d="M124.48,87.18l61-61a3,3,0,0,1,4.24,0L211.65,48.1a3,3,0,0,1,0,4.24l-61,61a3,3,0,0,1-1.27.76l-35.64,10.56a1,1,0,0,1-1.24-1.26l11.22-35A3,3,0,0,1,124.48,87.18Z"/><polyline class="cls-2" points="149 114 142 95 200.27 36.73"/><line class="cls-2" x1="124" y1="88" x2="142" y2="95"/></svg>