<svg id="Layer_1" data-name="Layer 1" xmlns="http://www.w3.org/2000/svg" viewBox="0 0 265 265"><title>HomeIconWhite</title><path d="M202,242.82H63a12,12,0,0,1-12-12v-125a12,12,0,0,1,12-12H202a12,12,0,0,1,12,12v125A12,12,0,0,1,202,242.82Zm-135-16H198v-117H67Z" style="fill:#fff"/><path d="M223.41,109.82H41.59a11.83,11.83,0,0,1-11.5-7.88A10.54,10.54,0,0,1,34.17,90l90.91-65.61a13,13,0,0,1,14.85,0L230.83,90a10.54,10.54,0,0,1,4.08,11.91A11.83,11.83,0,0,1,223.41,109.82Zm-167.16-16H208.75l-76.25-55Zm74.3-56.43h0Z" style="fill:#fff"/><path d="M154,242.94H112a10,10,0,0,1-10-10v-70a10,10,0,0,1,10-10h42a10,10,0,0,1,10,10v70A10,10,0,0,1,154,242.94Zm-36-16h30v-58H118Z" style="fill:#fff"/></svg>