<svg id="Layer_1" data-name="Layer 1" xmlns="http://www.w3.org/2000/svg" viewBox="0 0 265 265"><title>IAGModelIcon</title><path d="M118.65,78.68a35.59,35.59,0,1,1,35.59-35.59A35.63,35.63,0,0,1,118.65,78.68Zm0-59.18a23.59,23.59,0,1,0,23.59,23.59A23.62,23.62,0,0,0,118.65,19.5Z" style="fill:#2a3a89"/><path d="M190.42,93.82A35.59,35.59,0,1,1,226,58.23,35.63,35.63,0,0,1,190.42,93.82Zm0-59.18A23.59,23.59,0,1,0,214,58.23,23.61,23.61,0,0,0,190.42,34.65Z" style="fill:#2a3a89"/><path d="M225.67,158a35.59,35.59,0,1,1,35.59-35.59A35.63,35.63,0,0,1,225.67,158Zm0-59.18a23.59,23.59,0,1,0,23.59,23.59A23.61,23.61,0,0,0,225.67,98.86Z" style="fill:#2a3a89"/><path d="M146.09,257.5a35.59,35.59,0,1,1,35.59-35.59A35.63,35.63,0,0,1,146.09,257.5Zm0-59.18a23.59,23.59,0,1,0,23.59,23.59A23.62,23.62,0,0,0,146.09,198.32Z" style="fill:#2a3a89"/><path d="M216.09,232.5a35.59,35.59,0,1,1,35.59-35.59A35.63,35.63,0,0,1,216.09,232.5Zm0-59.18a23.59,23.59,0,1,0,23.59,23.59A23.62,23.62,0,0,0,216.09,173.32Z" style="fill:#2a3a89"/><path d="M73.32,249.43a35.59,35.59,0,1,1,35.59-35.59A35.63,35.63,0,0,1,73.32,249.43Zm0-59.18a23.59,23.59,0,1,0,23.59,23.59A23.61,23.61,0,0,0,73.32,190.25Z" style="fill:#2a3a89"/><path d="M39.33,184.47a35.59,35.59,0,1,1,35.59-35.59A35.63,35.63,0,0,1,39.33,184.47Zm0-59.18a23.59,23.59,0,1,0,23.59,23.59A23.62,23.62,0,0,0,39.33,125.3Z" style="fill:#2a3a89"/><path d="M53.18,112A35.59,35.59,0,1,1,88.77,76.38,35.63,35.63,0,0,1,53.18,112Zm0-59.18A23.59,23.59,0,1,0,76.77,76.38,23.61,23.61,0,0,0,53.18,52.79Z" style="fill:#2a3a89"/></svg>