<svg id="Layer_1" data-name="Layer 1" xmlns="http://www.w3.org/2000/svg" viewBox="0 0 265 265"><defs><style>.cls-1{fill:#fff;}</style></defs><title>MessagesIconWhiteAlt</title><path class="cls-1" d="M40.48,244.5a11,11,0,0,1-3.84-.69,10.91,10.91,0,0,1-7.09-9.07L24.34,188H17.28A11.9,11.9,0,0,1,9,184.53a11.67,11.67,0,0,1-3.46-8.32V32.26A11.78,11.78,0,0,1,17.28,20.5H247.72A11.78,11.78,0,0,1,259.5,32.26V176.21A11.78,11.78,0,0,1,247.72,188H105.41L48,241.54A10.93,10.93,0,0,1,40.48,244.5ZM19.5,174H36.87l5.92,53.25L99.89,174H245.5V34.5H19.5Z"/><path class="cls-1" d="M220.5,78H44.5a7,7,0,0,1,0-14h176a7,7,0,0,1,0,14Z"/><path class="cls-1" d="M220.5,112H44.5a7,7,0,0,1,0-14h176a7,7,0,0,1,0,14Z"/><path class="cls-1" d="M220.5,145H44.5a7,7,0,0,1,0-14h176a7,7,0,0,1,0,14Z"/></svg>