<svg id="Layer_1" data-name="Layer 1" xmlns="http://www.w3.org/2000/svg" viewBox="0 0 265 265"><title>MessagesIconWhite</title><path d="M238,215H27a14,14,0,0,1-14-14V64A14,14,0,0,1,27,50H238a14,14,0,0,1,14,14V201A14,14,0,0,1,238,215ZM29,199H236V66H29Z" style="fill:#fff"/><polygon points="132.99 144.68 18.25 66.36 27.27 53.15 133.01 125.32 238.17 53.73 247.17 66.95 132.99 144.68" style="fill:#fff"/><rect x="8.79" y="157.75" width="125.86" height="16" transform="translate(-86.81 79.23) rotate(-37.98)" style="fill:#fff"/><rect x="185.69" y="103.31" width="16" height="124.88" transform="translate(-56.46 214.9) rotate(-51.67)" style="fill:#fff"/></svg>