<svg id="Layer_1" data-name="Layer 1" xmlns="http://www.w3.org/2000/svg" viewBox="0 0 265 265"><defs><style>.cls-1{fill:#2a3a89;stroke-width:3px;}.cls-1,.cls-2{stroke:#2a3a89;stroke-miterlimit:10;}.cls-2{fill:none;stroke-width:12px;}</style></defs><title>ProfileIcon</title><path class="cls-1" d="M134,119.64a34.83,34.83,0,1,1,34.72-34.83A34.81,34.81,0,0,1,134,119.64Zm0-61.11a26.28,26.28,0,1,0,26.17,26.28A26.26,26.26,0,0,0,134,58.53Z"/><path class="cls-1" d="M184.39,205H80.6a7.18,7.18,0,0,1-7.16-6.42,74.53,74.53,0,0,1,18.41-57.92c11.57-12.82,26.51-20.16,41-20.07S162,128,173.4,140.84a74.58,74.58,0,0,1,18.15,57.76A7.19,7.19,0,0,1,184.39,205ZM81.82,196.47H183.17A66,66,0,0,0,167,146.54c-9.68-10.84-22.49-17.34-34.27-17.4S108,135.54,98.2,146.39A65.91,65.91,0,0,0,81.82,196.47Z"/><circle class="cls-2" cx="132.5" cy="132.5" r="107"/></svg>