<svg id="Layer_1" data-name="Layer 1" xmlns="http://www.w3.org/2000/svg" viewBox="0 0 265 265"><title>ProfileIcon</title><path d="M134.89,119.62a57.06,57.06,0,1,1,56.88-57.06A57,57,0,0,1,134.89,119.62Zm0-100.12a43.06,43.06,0,1,0,42.88,43.06A43,43,0,0,0,134.89,19.5Z" style="fill:#2a3a89"/><path d="M217.52,259.5H47.46A11.77,11.77,0,0,1,35.74,249C32,214.06,43,179.47,65.9,154.08c19-21,43.43-33,67.09-32.89s47.79,12.2,66.52,33.17C222.19,179.75,233,214.24,229.25,249A11.77,11.77,0,0,1,217.52,259.5Zm-168.06-14H215.52c2.74-30.14-6.84-59.85-26.45-81.81-15.86-17.76-36.85-28.41-56.14-28.5S92.35,145.67,76.3,163.46C56.47,185.42,46.75,215.22,49.46,245.5Z" style="fill:#2a3a89"/></svg>