<svg id="Layer_1" data-name="Layer 1" xmlns="http://www.w3.org/2000/svg" viewBox="0 0 265 265"><title>SettingsIcon</title><path d="M143.62,259.5H121.38a9.79,9.79,0,0,1-9.78-9.78V234.18a103.24,103.24,0,0,1-13.15-3.61l-8.37,14.14a9.79,9.79,0,0,1-13.4,3.43L57.54,236.82a9.78,9.78,0,0,1-3.43-13.4l8.44-14.25a104.59,104.59,0,0,1-8.44-8.65l-13.25,7.67a9.78,9.78,0,0,1-13.37-3.56L16.34,185.39A9.79,9.79,0,0,1,19.9,172l13.7-7.94a103.43,103.43,0,0,1-3.24-13H15.28A9.79,9.79,0,0,1,5.5,141.3V119.06a9.79,9.79,0,0,1,9.78-9.78h16a103.38,103.38,0,0,1,3.13-10.9L22.07,91.46A9.78,9.78,0,0,1,18.3,78.15L29.16,58.74A9.79,9.79,0,0,1,42.46,55l13.43,7.51q3-3.32,6.36-6.38l-8-13.34a9.79,9.79,0,0,1,3.35-13.42L76.65,17.9a9.78,9.78,0,0,1,13.42,3.35l8,13.31a103.27,103.27,0,0,1,13.53-3.74V15.28a9.79,9.79,0,0,1,9.78-9.78h22.24a9.79,9.79,0,0,1,9.78,9.78V30.82a103.33,103.33,0,0,1,12.92,3.53L174.23,21a9.78,9.78,0,0,1,13.4-3.43l19.14,11.33a9.78,9.78,0,0,1,3.43,13.4l-7.92,13.39A104.62,104.62,0,0,1,210,63.45l13.46-7.8a9.78,9.78,0,0,1,13.37,3.56L248,78.45a9.79,9.79,0,0,1-3.56,13.36L231,99.6a103.53,103.53,0,0,1,3.22,12h15.54a9.79,9.79,0,0,1,9.78,9.78v22.24a9.79,9.79,0,0,1-9.78,9.78H234.18a103.53,103.53,0,0,1-2.72,10.48L245,171.45a9.78,9.78,0,0,1,3.76,13.31l-10.85,19.41a9.79,9.79,0,0,1-13.31,3.77L211,200.35a104.41,104.41,0,0,1-8.29,8.55l8,13.34a9.79,9.79,0,0,1-3.35,13.42L188.35,247.1a9.78,9.78,0,0,1-13.42-3.35l-8-13.31a103.33,103.33,0,0,1-13.53,3.74v15.54A9.79,9.79,0,0,1,143.62,259.5Zm-18-14h13.8V222.23l6-.86a89.22,89.22,0,0,0,21.8-6l5.59-2.34,12,19.93,11.83-7.1-12-19.95L189.3,202a90.43,90.43,0,0,0,14.48-14.93l3.69-4.8,20.3,11.35,6.73-12-20.29-11.34,2.17-5.66a89.3,89.3,0,0,0,5-19.21l.86-6H245.5V125.6H222.23l-.86-6a89.26,89.26,0,0,0-5.5-20.5l-2.26-5.62,20.12-11.66-6.92-11.94L206.68,81.54l-3.76-4.75a90.45,90.45,0,0,0-14.07-14.2l-4.71-3.8,11.85-20-11.87-7-11.84,20-5.6-2.31a89.23,89.23,0,0,0-21.28-5.81l-6-.86V19.5H125.6V42.77l-6,.86a89.22,89.22,0,0,0-21.8,6L92.21,52l-12-19.93-11.83,7.1,12,19.95L75.7,63A90.6,90.6,0,0,0,62.88,75.8l-3.71,4.55L39.32,69.25l-6.73,12L52,92.16l-2.41,5.76A89.28,89.28,0,0,0,44,117.45l-1,5.83H19.5v13.8H42.61l.74,6.17a89.34,89.34,0,0,0,5.32,21.47l2.14,5.58L30.57,182,37.49,194l20.06-11.62,3.74,4.87A90.49,90.49,0,0,0,76,202.26l5,4-3.55,5.27L68.3,226.92l11.87,7,9.09-15.36,3-5.55,5.85,2.43a89.24,89.24,0,0,0,21.49,5.9l6,.86ZM77.3,211.71h0Zm.22-.35-.06.11Zm55-37.78a41.07,41.07,0,1,1,41.07-41.07A41.12,41.12,0,0,1,132.5,173.57Zm0-68.15a27.07,27.07,0,1,0,27.07,27.07A27.1,27.1,0,0,0,132.5,105.43Z" style="fill:#2a3a89"/></svg>